<svg xmlns="http://www.w3.org/2000/svg" xmlns:xlink="http://www.w3.org/1999/xlink" id="Layer_1" data-name="Layer 1" viewBox="0 0 1200 900">
  <defs fill="#000000">
    <style>.cls-1,.cls-3,.cls-8{fill:none;}.cls-2{fill:#fff;}.cls-2,.cls-3,.cls-7{stroke:#4055fe;}.cls-2,.cls-3,.cls-7,.cls-8{stroke-linecap:round;stroke-linejoin:round;stroke-width:4px;}.cls-4,.cls-7{fill:#4055fe;}.cls-5{fill:#e64fff;}.cls-6{clip-path:url(#clip-path);}.cls-8{stroke:#fff;}</style>
    <clipPath id="clip-path" fill="#000000">
      <circle class="cls-1" cx="607.93" cy="460.75" r="65.43" fill="#000000"/>
    </clipPath>
  </defs>
  <path class="cls-2" d="M868,883.87H418.74c-11.7,0-21.19-9.49-21.84-26.32V32.19c.65-6.57,10.14-16.06,21.84-16.06H868a21.19,21.19,0,0,1,21.18,21.19V862.68A21.19,21.19,0,0,1,868,883.87Z" fill="#000000"/>
  <circle class="cls-3" cx="643.35" cy="828.48" r="34.93" fill="#000000"/>
  <rect class="cls-3" x="601.64" y="42.09" width="83.43" height="11.93" rx="5.46" fill="#000000"/>
  <path class="cls-2" d="M847.82,424.58C798.32,492,725.07,534.71,643.35,534.71S488.5,492,438.89,424.58c49.5-67.43,122.74-110.12,204.46-110.12S798.32,357.15,847.82,424.58Z" fill="#000000"/>
  <circle class="cls-4" cx="643.35" cy="424.58" r="110.12" fill="#000000"/>
  <path class="cls-2" d="M503.85,489.06c-18.06,53.66-4.52,89.05-45,89.05-13.31,0-26.22-12.35-26.22-24.3a18.6,18.6,0,0,1,3.52-10.69c12.77,2.33,8.49,2.48,21.21,5,56.09-94.53,12.45-68.82,47.46-103.24" fill="#000000"/>
  <circle class="cls-5" cx="607.93" cy="460.75" r="110.12" fill="#000000"/>
  <circle class="cls-3" cx="607.93" cy="460.75" r="65.43" fill="#000000"/>
  <g class="cls-6">
    <line class="cls-3" x1="511.98" y1="458.28" x2="645.06" y2="368.67" fill="#000000"/>
    <line class="cls-3" x1="519.69" y1="469.73" x2="652.77" y2="380.12" fill="#000000"/>
    <line class="cls-3" x1="527.4" y1="481.18" x2="660.48" y2="391.57" fill="#000000"/>
    <line class="cls-3" x1="535.11" y1="492.63" x2="668.19" y2="403.02" fill="#000000"/>
    <line class="cls-3" x1="542.82" y1="504.08" x2="675.9" y2="414.47" fill="#000000"/>
    <line class="cls-3" x1="550.53" y1="515.53" x2="683.61" y2="425.93" fill="#000000"/>
    <line class="cls-3" x1="558.24" y1="526.98" x2="691.32" y2="437.38" fill="#000000"/>
    <line class="cls-3" x1="565.95" y1="538.43" x2="699.03" y2="448.83" fill="#000000"/>
    <line class="cls-3" x1="573.66" y1="549.88" x2="706.74" y2="460.28" fill="#000000"/>
  </g>
  <path class="cls-7" d="M460.84,883.81a26.84,26.84,0,0,0,.56-3.82c1.19-21.79-30.34-4.33-29.11-35.53a96.24,96.24,0,0,1-16.81.34c-2.81-.15-5.61-.38-8.38-.62-1.17,9.22-4.57,25.81-4.8,30-.19,3.45.36,6.74,2.86,9.66" fill="#000000"/>
  <path class="cls-7" d="M414.27,883a4.82,4.82,0,0,0,.19-1.31c0-6.31-18.57-6.06-19.68-26.94-.69-13-1.38-7.46-13.79-10.6a28,28,0,0,0-8.79-4.21c-6.89,11.62-13,15.94-13,22.75,0,5.2,2.38,7.51,22.58,21.2" fill="#000000"/>
  <path class="cls-2" d="M368.24,825.79V826c0,2-.73,3.91-.73,5.94,0,6,5.22,10.56,10.89,13.09a56.05,56.05,0,0,0,8.82,3c2.74.26,5.37.71,7.93.71,4.12,0,7.79-1.34,10.39-4.51,11.58-14.12,22.06-52.64,22.06-73.81,0-19.44-3.78-43.82-3.78-63.3,0-11.53,1.51-28.73,1.51-29.12,0-10-22.73-13.74-31.35-13.74-6.4,0-16.13-4.42-21.38-.44C366.85,701,386,762.45,386,762.55,386,771.44,372.79,810,368.24,825.79Z" fill="#000000"/>
  <path class="cls-2" d="M390,691.42c1.74,47.65,18.44,74.11,18.44,86.12,0,11.66-9.41,53.48-9.41,60.62,0,13,13.13,16.39,26.15,16.39,17.05,0,14.59-4.94,20.82-25.85,6.73-22.56,14.88-46.77,14.88-70.62,0-15-4.44-68.21-5.39-92.48-7.31-6.74-49.65-.17-67.13-.17" fill="#000000"/>
  <path class="cls-2" d="M494.94,469.36c4.7-3.65,10.18-10,13.24-10,2.09,0,2.91,2.05,2.91,4.14,0,6-7.65,10.28-12.69,15.8" fill="#000000"/>
  <path class="cls-7" d="M443,559.84l-.43-.06c-2-7.86-3.09-17.55-3.72-18.68l-.23-.33c-8.34-.2-16.65-.83-25-.83-2.48,0-4.67.07-6.69.18-1.44-.5-2.87-.93-4.28-1.31a71.1,71.1,0,0,0-14.11-2.35c-20.9,4.22-26.72,21.15-26.72,42.78,0,22.71,8.68,50.3,8.68,72.65,0,2.55-.16,5.11-.16,7.63,0,11.77,5.17,20.91,26.83,20.91,14.31,0,61.36-1.74,61.36-16.06,0-1.62-.15-3.25-.15-4.57,0,0,.17-3.39.17-6.32,0-19.94,1.07-35.19-2-53.48,4.1-9.16,6.67-20.14,6.67-21.92a6.6,6.6,0,0,0-1.41-3.66A235.85,235.85,0,0,0,443,559.84Z" fill="#000000"/>
  <path class="cls-2" d="M531.29,543.64c14-3.44,20.43-7.1,26.34-7.24h.09a2.62,2.62,0,0,1,2.74,2.91,5.19,5.19,0,0,1-1.08,3.11,21,21,0,0,1,4.37-.7,7.44,7.44,0,0,1,1.25.1c.36.29,2.34.22,2.34,3.74,0,1.32-1.77,1.94-4.41,2.91a8.33,8.33,0,0,1,1.55-.2,2.79,2.79,0,0,1,2.86,2.74c.87,7.14-33,8.64-36.68,17.09C503.34,631,498.86,631.82,486,631.82c-9.56,0-29.82-13-37.5-18.46,5.08-11,10.11-22,15.41-32.87,6.2,2,20.23,11.13,22.38,12.65,25-28.81,27.5-34.35,34.53-44.87.45-6.53,3.74-8.19,4.61-14.63" fill="#000000"/>
  <path class="cls-3" d="M548.46,553.34c5.86-2.24,9.58-3,15.73-5.36" fill="#000000"/>
  <path class="cls-3" d="M541.17,548.27c2.69-.63,13.24-4.25,18.21-5.85" fill="#000000"/>
  <path class="cls-8" d="M413.46,598c10.55,8,14.68,8.89,29.91,15.68" fill="#000000"/>
  <path class="cls-2" d="M437.78,459.45a23.38,23.38,0,0,0-12.11-3c-29.39,0-42.55,15.08-42.55,33.71,0,3.58,1.61,11.34,1.61,31.75,0,1.49-.87,7-.87,14.76,0,8.66,5.89,10.78,14.54,10.78h.47c1.52,0,3.3.13,5,.15,18.69.2,9.65-14.61,31-20.9,17.21-5.07,11.61-18,14.24-30.64,1.6-1.15,5.74-3,5.74-6.06,0-.1-10-27-17-30.53" fill="#000000"/>
  <path class="cls-4" d="M396.82,456.29C384.1,462,376.55,472,376.55,487.65c0,12.26,4.26,33.15,16.71,33.15,6.72,0,14.6-6.94,14.6-15.26,0-2.48-.5-5.16-.5-7.71,0-16.89,35.29.11,35.29-34,0-9.36-5.65-16.81-14.56-16.81-6.25,0-12.27,3.26-17.94,5.46C405.81,454.12,401.28,455,396.82,456.29Z" fill="#000000"/>
  <path class="cls-2" d="M422.55,492.63c-1.56-1.57-4.14-5.07-9.17-5.07-5.49,0-8.9,6.71-8.9,11.64,0,5.95,5,11.26,10,11.26a7.65,7.65,0,0,0,3.59-.91" fill="#000000"/>
  <path class="cls-3" d="M442.49,486.29c-.37-2.25-.67-5.31-.91-7.57" fill="#000000"/>
  <path class="cls-3" d="M438,504.21a13.2,13.2,0,0,0,6.16,1.88,7.48,7.48,0,0,0,3.06-.64" fill="#000000"/>
  <line class="cls-3" x1="323.08" y1="883.87" x2="515.36" y2="883.87" fill="#000000"/>
</svg>