<?xml version="1.0" encoding="utf-8"?>
<!-- Generator: Adobe Illustrator 25.4.1, SVG Export Plug-In . SVG Version: 6.00 Build 0)  -->
<svg version="1.1" xmlns="http://www.w3.org/2000/svg" xmlns:xlink="http://www.w3.org/1999/xlink" x="0px" y="0px"
	 viewBox="0 0 500 500" style="enable-background:new 0 0 500 500;" xml:space="preserve">
<style type="text/css">
	.st0{fill:none;stroke:#4055FE;stroke-miterlimit:10;}
	.st1{fill:none;stroke:#263238;stroke-linecap:round;stroke-linejoin:round;}
	.st2{fill:none;stroke:#263238;stroke-linecap:round;stroke-linejoin:round;stroke-dasharray:7.8366,7.8366;}
	.st3{fill:#E64FFF;}
	.st4{fill:#4055FE;}
	.st5{fill:#E64FFF;stroke:#4055FE;stroke-linecap:round;stroke-linejoin:round;stroke-miterlimit:10;}
	.st6{opacity:0.5;}
	.st7{fill:none;stroke:#FFFFFF;stroke-linecap:round;stroke-linejoin:round;stroke-miterlimit:10;}
	.st8{fill:none;stroke:#263238;stroke-linecap:round;stroke-linejoin:round;stroke-miterlimit:10;}
	.st9{fill:#FFFFFF;}
	.st10{opacity:0.4;fill:#4055FE;}
</style>
<g id="Background_Simple">
</g>
<g id="Graphics">
</g>
<g id="Icon_3">
</g>
<g id="Icon_2">
</g>
<g id="Icon_1">
</g>
<g id="Fingerprint">
</g>
<g id="Hand">
	<g>
		<path class="st0" d="M18.8,275.9c-5-23.3-3.6-47.9,6.5-72.9c13.1-32.3,41.1-55.2,72.5-68.6c45.7-19.4,90.5-19.8,127.6-57.9
			c11.5-11.8,21.1-25.2,32.8-36.7c34.5-34,85-29.8,122.7-2.9C459.6,93,487.9,204.3,483.5,296.2c-2,41.3-21.7,79.7-52.9,106.8
			c-70.5,61.2-190.3,50.9-271.3,19C99,398.1,33,342.5,18.8,275.9z"/>
		<g>
			<g>
				<line class="st1" x1="254.8" y1="99.1" x2="254.8" y2="105.1"/>
				<line class="st2" x1="254.8" y1="112.9" x2="254.8" y2="124.7"/>
				<line class="st1" x1="254.8" y1="128.6" x2="254.8" y2="134.6"/>
			</g>
		</g>
		<g>
			<g>
				<g>
					<line class="st1" x1="363" y1="213.8" x2="357" y2="213.8"/>
					<line class="st2" x1="349.1" y1="213.8" x2="337.4" y2="213.8"/>
					<line class="st1" x1="333.5" y1="213.8" x2="327.5" y2="213.8"/>
				</g>
			</g>
			<g>
				<g>
					<line class="st1" x1="182.1" y1="213.8" x2="176.1" y2="213.8"/>
					<line class="st2" x1="168.3" y1="213.8" x2="156.5" y2="213.8"/>
					<line class="st1" x1="152.6" y1="213.8" x2="146.6" y2="213.8"/>
				</g>
			</g>
		</g>
		<g>
			<g>
				<path class="st3" d="M441.7,236.8c0-1.2,0.6-1.9,1.8-1.9c1.2,0,1.8,0.7,1.8,1.9v3.9c0,1.2-0.6,1.9-1.8,1.9
					c-1.2,0-1.8-0.7-1.8-1.9V236.8z M442.9,240.8c0,0.5,0.2,0.7,0.6,0.7c0.4,0,0.6-0.2,0.6-0.7v-4c0-0.5-0.2-0.7-0.6-0.7
					c-0.4,0-0.6,0.2-0.6,0.7V240.8z"/>
				<path class="st3" d="M442.5,246.7c0.9,0,1.1-0.4,1.3-0.9h0.8v7.5h-1.2v-5.7h-0.9V246.7z"/>
				<path class="st3" d="M441.7,258.2c0-1.2,0.6-1.9,1.8-1.9c1.2,0,1.8,0.7,1.8,1.9v3.9c0,1.2-0.6,1.9-1.8,1.9
					c-1.2,0-1.8-0.7-1.8-1.9V258.2z M442.9,262.2c0,0.5,0.2,0.7,0.6,0.7c0.4,0,0.6-0.2,0.6-0.7v-4c0-0.5-0.2-0.7-0.6-0.7
					c-0.4,0-0.6,0.2-0.6,0.7V262.2z"/>
				<path class="st3" d="M442.5,268c0.9,0,1.1-0.4,1.3-0.9h0.8v7.5h-1.2v-5.7h-0.9V268z"/>
				<path class="st3" d="M441.7,279.6c0-1.2,0.6-1.9,1.8-1.9c1.2,0,1.8,0.7,1.8,1.9v3.9c0,1.2-0.6,1.9-1.8,1.9
					c-1.2,0-1.8-0.7-1.8-1.9V279.6z M442.9,283.6c0,0.5,0.2,0.7,0.6,0.7c0.4,0,0.6-0.2,0.6-0.7v-4c0-0.5-0.2-0.7-0.6-0.7
					c-0.4,0-0.6,0.2-0.6,0.7V283.6z"/>
				<path class="st3" d="M442.5,289.4c0.9,0,1.1-0.4,1.3-0.9h0.8v7.5h-1.2v-5.7h-0.9V289.4z"/>
				<path class="st3" d="M441.7,301c0-1.2,0.6-1.9,1.8-1.9c1.2,0,1.8,0.7,1.8,1.9v3.9c0,1.2-0.6,1.9-1.8,1.9c-1.2,0-1.8-0.7-1.8-1.9
					V301z M442.9,304.9c0,0.5,0.2,0.7,0.6,0.7c0.4,0,0.6-0.2,0.6-0.7v-4c0-0.5-0.2-0.7-0.6-0.7c-0.4,0-0.6,0.2-0.6,0.7V304.9z"/>
				<path class="st3" d="M441.7,311.7c0-1.2,0.6-1.9,1.8-1.9c1.2,0,1.8,0.7,1.8,1.9v3.9c0,1.2-0.6,1.9-1.8,1.9
					c-1.2,0-1.8-0.7-1.8-1.9V311.7z M442.9,315.6c0,0.5,0.2,0.7,0.6,0.7c0.4,0,0.6-0.2,0.6-0.7v-4c0-0.5-0.2-0.7-0.6-0.7
					c-0.4,0-0.6,0.2-0.6,0.7V315.6z"/>
				<path class="st3" d="M441.7,322.4c0-1.2,0.6-1.9,1.8-1.9c1.2,0,1.8,0.7,1.8,1.9v3.9c0,1.2-0.6,1.9-1.8,1.9
					c-1.2,0-1.8-0.7-1.8-1.9V322.4z M442.9,326.3c0,0.5,0.2,0.7,0.6,0.7c0.4,0,0.6-0.2,0.6-0.7v-4c0-0.5-0.2-0.7-0.6-0.7
					c-0.4,0-0.6,0.2-0.6,0.7V326.3z"/>
				<path class="st3" d="M442.5,342.9c0.9,0,1.1-0.4,1.3-0.9h0.8v7.5h-1.2v-5.7h-0.9V342.9z"/>
				<path class="st3" d="M442.5,353.6c0.9,0,1.1-0.4,1.3-0.9h0.8v7.5h-1.2v-5.7h-0.9V353.6z"/>
				<path class="st3" d="M442.5,364.3c0.9,0,1.1-0.4,1.3-0.9h0.8v7.5h-1.2v-5.7h-0.9V364.3z"/>
				<path class="st3" d="M441.7,375.8c0-1.2,0.6-1.9,1.8-1.9c1.2,0,1.8,0.7,1.8,1.9v3.9c0,1.2-0.6,1.9-1.8,1.9
					c-1.2,0-1.8-0.7-1.8-1.9V375.8z M442.9,379.8c0,0.5,0.2,0.7,0.6,0.7c0.4,0,0.6-0.2,0.6-0.7v-4c0-0.5-0.2-0.7-0.6-0.7
					c-0.4,0-0.6,0.2-0.6,0.7V379.8z"/>
				<path class="st3" d="M441.7,386.5c0-1.2,0.6-1.9,1.8-1.9c1.2,0,1.8,0.7,1.8,1.9v3.9c0,1.2-0.6,1.9-1.8,1.9
					c-1.2,0-1.8-0.7-1.8-1.9V386.5z M442.9,390.5c0,0.5,0.2,0.7,0.6,0.7c0.4,0,0.6-0.2,0.6-0.7v-4c0-0.5-0.2-0.7-0.6-0.7
					c-0.4,0-0.6,0.2-0.6,0.7V390.5z"/>
				<path class="st3" d="M442.5,396.4c0.9,0,1.1-0.4,1.3-0.9h0.8v7.5h-1.2v-5.7h-0.9V396.4z"/>
			</g>
			<g>
				<path class="st3" d="M448.9,225.3c0.9,0,1.1-0.4,1.3-0.9h0.8v7.5h-1.2v-5.7h-0.9V225.3z"/>
				<path class="st3" d="M448.9,236c0.9,0,1.1-0.4,1.3-0.9h0.8v7.5h-1.2v-5.7h-0.9V236z"/>
				<path class="st3" d="M448,258.2c0-1.2,0.6-1.9,1.8-1.9c1.2,0,1.8,0.7,1.8,1.9v3.9c0,1.2-0.6,1.9-1.8,1.9c-1.2,0-1.8-0.7-1.8-1.9
					V258.2z M449.2,262.2c0,0.5,0.2,0.7,0.6,0.7c0.4,0,0.6-0.2,0.6-0.7v-4c0-0.5-0.2-0.7-0.6-0.7c-0.4,0-0.6,0.2-0.6,0.7V262.2z"/>
				<path class="st3" d="M448.9,289.4c0.9,0,1.1-0.4,1.3-0.9h0.8v7.5h-1.2v-5.7h-0.9V289.4z"/>
				<path class="st3" d="M448,301c0-1.2,0.6-1.9,1.8-1.9c1.2,0,1.8,0.7,1.8,1.9v3.9c0,1.2-0.6,1.9-1.8,1.9c-1.2,0-1.8-0.7-1.8-1.9
					V301z M449.2,304.9c0,0.5,0.2,0.7,0.6,0.7c0.4,0,0.6-0.2,0.6-0.7v-4c0-0.5-0.2-0.7-0.6-0.7c-0.4,0-0.6,0.2-0.6,0.7V304.9z"/>
				<path class="st3" d="M448.9,310.8c0.9,0,1.1-0.4,1.3-0.9h0.8v7.5h-1.2v-5.7h-0.9V310.8z"/>
				<path class="st3" d="M448.9,321.5c0.9,0,1.1-0.4,1.3-0.9h0.8v7.5h-1.2v-5.7h-0.9V321.5z"/>
				<path class="st3" d="M448.9,332.2c0.9,0,1.1-0.4,1.3-0.9h0.8v7.5h-1.2V333h-0.9V332.2z"/>
				<path class="st3" d="M448,343.7c0-1.2,0.6-1.9,1.8-1.9c1.2,0,1.8,0.7,1.8,1.9v3.9c0,1.2-0.6,1.9-1.8,1.9c-1.2,0-1.8-0.7-1.8-1.9
					V343.7z M449.2,347.7c0,0.5,0.2,0.7,0.6,0.7c0.4,0,0.6-0.2,0.6-0.7v-4c0-0.5-0.2-0.7-0.6-0.7c-0.4,0-0.6,0.2-0.6,0.7V347.7z"/>
				<path class="st3" d="M448,354.4c0-1.2,0.6-1.9,1.8-1.9c1.2,0,1.8,0.7,1.8,1.9v3.9c0,1.2-0.6,1.9-1.8,1.9c-1.2,0-1.8-0.7-1.8-1.9
					V354.4z M449.2,358.4c0,0.5,0.2,0.7,0.6,0.7c0.4,0,0.6-0.2,0.6-0.7v-4c0-0.5-0.2-0.7-0.6-0.7c-0.4,0-0.6,0.2-0.6,0.7V358.4z"/>
			</g>
			<g>
				<path class="st3" d="M436.1,289.4c0.9,0,1.1-0.4,1.3-0.9h0.8v7.5h-1.2v-5.7h-0.9V289.4z"/>
				<path class="st3" d="M435.3,301c0-1.2,0.6-1.9,1.8-1.9c1.2,0,1.8,0.7,1.8,1.9v3.9c0,1.2-0.6,1.9-1.8,1.9c-1.2,0-1.8-0.7-1.8-1.9
					V301z M436.5,304.9c0,0.5,0.2,0.7,0.6,0.7c0.4,0,0.6-0.2,0.6-0.7v-4c0-0.5-0.2-0.7-0.6-0.7c-0.4,0-0.6,0.2-0.6,0.7V304.9z"/>
				<path class="st3" d="M435.3,311.7c0-1.2,0.6-1.9,1.8-1.9c1.2,0,1.8,0.7,1.8,1.9v3.9c0,1.2-0.6,1.9-1.8,1.9
					c-1.2,0-1.8-0.7-1.8-1.9V311.7z M436.5,315.6c0,0.5,0.2,0.7,0.6,0.7c0.4,0,0.6-0.2,0.6-0.7v-4c0-0.5-0.2-0.7-0.6-0.7
					c-0.4,0-0.6,0.2-0.6,0.7V315.6z"/>
				<path class="st3" d="M436.1,321.5c0.9,0,1.1-0.4,1.3-0.9h0.8v7.5h-1.2v-5.7h-0.9V321.5z"/>
				<path class="st3" d="M436.1,342.9c0.9,0,1.1-0.4,1.3-0.9h0.8v7.5h-1.2v-5.7h-0.9V342.9z"/>
				<path class="st3" d="M436.1,353.6c0.9,0,1.1-0.4,1.3-0.9h0.8v7.5h-1.2v-5.7h-0.9V353.6z"/>
				<path class="st3" d="M436.1,364.3c0.9,0,1.1-0.4,1.3-0.9h0.8v7.5h-1.2v-5.7h-0.9V364.3z"/>
			</g>
			<g>
				<path class="st3" d="M429,258.2c0-1.2,0.6-1.9,1.8-1.9c1.2,0,1.8,0.7,1.8,1.9v3.9c0,1.2-0.6,1.9-1.8,1.9c-1.2,0-1.8-0.7-1.8-1.9
					V258.2z M430.1,262.2c0,0.5,0.2,0.7,0.6,0.7c0.4,0,0.6-0.2,0.6-0.7v-4c0-0.5-0.2-0.7-0.6-0.7c-0.4,0-0.6,0.2-0.6,0.7V262.2z"/>
				<path class="st3" d="M429,279.6c0-1.2,0.6-1.9,1.8-1.9c1.2,0,1.8,0.7,1.8,1.9v3.9c0,1.2-0.6,1.9-1.8,1.9c-1.2,0-1.8-0.7-1.8-1.9
					V279.6z M430.1,283.6c0,0.5,0.2,0.7,0.6,0.7c0.4,0,0.6-0.2,0.6-0.7v-4c0-0.5-0.2-0.7-0.6-0.7c-0.4,0-0.6,0.2-0.6,0.7V283.6z"/>
				<path class="st3" d="M429.8,310.8c0.9,0,1.1-0.4,1.3-0.9h0.8v7.5h-1.2v-5.7h-0.9V310.8z"/>
				<path class="st3" d="M429.8,321.5c0.9,0,1.1-0.4,1.3-0.9h0.8v7.5h-1.2v-5.7h-0.9V321.5z"/>
				<path class="st3" d="M429.8,353.6c0.9,0,1.1-0.4,1.3-0.9h0.8v7.5h-1.2v-5.7h-0.9V353.6z"/>
				<path class="st3" d="M429,365.1c0-1.2,0.6-1.9,1.8-1.9c1.2,0,1.8,0.7,1.8,1.9v3.9c0,1.2-0.6,1.9-1.8,1.9c-1.2,0-1.8-0.7-1.8-1.9
					V365.1z M430.1,369.1c0,0.5,0.2,0.7,0.6,0.7c0.4,0,0.6-0.2,0.6-0.7v-4c0-0.5-0.2-0.7-0.6-0.7c-0.4,0-0.6,0.2-0.6,0.7V369.1z"/>
				<path class="st3" d="M429.8,375c0.9,0,1.1-0.4,1.3-0.9h0.8v7.5h-1.2v-5.7h-0.9V375z"/>
			</g>
		</g>
		<g>
			<g>
				<path class="st3" d="M165.8,269.6c0-1.2,0.6-1.9,1.8-1.9c1.2,0,1.8,0.7,1.8,1.9v3.9c0,1.2-0.6,1.9-1.8,1.9
					c-1.2,0-1.8-0.7-1.8-1.9V269.6z M166.9,273.6c0,0.5,0.2,0.7,0.6,0.7c0.4,0,0.6-0.2,0.6-0.7v-4c0-0.5-0.2-0.7-0.6-0.7
					c-0.4,0-0.6,0.2-0.6,0.7V273.6z"/>
				<path class="st3" d="M165.8,280.3c0-1.2,0.6-1.9,1.8-1.9c1.2,0,1.8,0.7,1.8,1.9v3.9c0,1.2-0.6,1.9-1.8,1.9
					c-1.2,0-1.8-0.7-1.8-1.9V280.3z M166.9,284.3c0,0.5,0.2,0.7,0.6,0.7c0.4,0,0.6-0.2,0.6-0.7v-4c0-0.5-0.2-0.7-0.6-0.7
					c-0.4,0-0.6,0.2-0.6,0.7V284.3z"/>
				<path class="st3" d="M166.6,290.1c0.9,0,1.1-0.4,1.3-0.9h0.8v7.5h-1.2V291h-0.9V290.1z"/>
				<path class="st3" d="M165.8,301.7c0-1.2,0.6-1.9,1.8-1.9c1.2,0,1.8,0.7,1.8,1.9v3.9c0,1.2-0.6,1.9-1.8,1.9
					c-1.2,0-1.8-0.7-1.8-1.9V301.7z M166.9,305.7c0,0.5,0.2,0.7,0.6,0.7c0.4,0,0.6-0.2,0.6-0.7v-4c0-0.5-0.2-0.7-0.6-0.7
					c-0.4,0-0.6,0.2-0.6,0.7V305.7z"/>
				<path class="st3" d="M166.6,311.5c0.9,0,1.1-0.4,1.3-0.9h0.8v7.5h-1.2v-5.7h-0.9V311.5z"/>
				<path class="st3" d="M165.8,323.1c0-1.2,0.6-1.9,1.8-1.9c1.2,0,1.8,0.7,1.8,1.9v3.9c0,1.2-0.6,1.9-1.8,1.9
					c-1.2,0-1.8-0.7-1.8-1.9V323.1z M166.9,327c0,0.5,0.2,0.7,0.6,0.7c0.4,0,0.6-0.2,0.6-0.7v-4c0-0.5-0.2-0.7-0.6-0.7
					c-0.4,0-0.6,0.2-0.6,0.7V327z"/>
				<path class="st3" d="M166.6,332.9c0.9,0,1.1-0.4,1.3-0.9h0.8v7.5h-1.2v-5.7h-0.9V332.9z"/>
				<path class="st3" d="M165.8,344.5c0-1.2,0.6-1.9,1.8-1.9c1.2,0,1.8,0.7,1.8,1.9v3.9c0,1.2-0.6,1.9-1.8,1.9
					c-1.2,0-1.8-0.7-1.8-1.9V344.5z M166.9,348.4c0,0.5,0.2,0.7,0.6,0.7c0.4,0,0.6-0.2,0.6-0.7v-4c0-0.5-0.2-0.7-0.6-0.7
					c-0.4,0-0.6,0.2-0.6,0.7V348.4z"/>
				<path class="st3" d="M165.8,355.2c0-1.2,0.6-1.9,1.8-1.9c1.2,0,1.8,0.7,1.8,1.9v3.9c0,1.2-0.6,1.9-1.8,1.9
					c-1.2,0-1.8-0.7-1.8-1.9V355.2z M166.9,359.1c0,0.5,0.2,0.7,0.6,0.7c0.4,0,0.6-0.2,0.6-0.7v-4c0-0.5-0.2-0.7-0.6-0.7
					c-0.4,0-0.6,0.2-0.6,0.7V359.1z"/>
				<path class="st3" d="M165.8,365.8c0-1.2,0.6-1.9,1.8-1.9c1.2,0,1.8,0.7,1.8,1.9v3.9c0,1.2-0.6,1.9-1.8,1.9
					c-1.2,0-1.8-0.7-1.8-1.9V365.8z M166.9,369.8c0,0.5,0.2,0.7,0.6,0.7c0.4,0,0.6-0.2,0.6-0.7v-4c0-0.5-0.2-0.7-0.6-0.7
					c-0.4,0-0.6,0.2-0.6,0.7V369.8z"/>
				<path class="st3" d="M166.6,375.7c0.9,0,1.1-0.4,1.3-0.9h0.8v7.5h-1.2v-5.7h-0.9V375.7z"/>
				<path class="st3" d="M166.6,386.4c0.9,0,1.1-0.4,1.3-0.9h0.8v7.5h-1.2v-5.7h-0.9V386.4z"/>
				<path class="st3" d="M166.6,397.1c0.9,0,1.1-0.4,1.3-0.9h0.8v7.5h-1.2v-5.7h-0.9V397.1z"/>
				<path class="st3" d="M166.6,407.8c0.9,0,1.1-0.4,1.3-0.9h0.8v7.5h-1.2v-5.7h-0.9V407.8z"/>
				<path class="st3" d="M166.9,423.3c0,0.5,0.2,0.7,0.6,0.7c0.4,0,0.6-0.2,0.6-0.7v-4c0-0.5-0.2-0.7-0.6-0.7
					c-0.4,0-0.6,0.2-0.6,0.7V423.3z"/>
			</g>
			<g>
				<path class="st3" d="M172.9,311.5c0.9,0,1.1-0.4,1.3-0.9h0.8v7.5h-1.2v-5.7h-0.9V311.5z"/>
				<path class="st3" d="M172.9,322.2c0.9,0,1.1-0.4,1.3-0.9h0.8v7.5h-1.2v-5.7h-0.9V322.2z"/>
				<path class="st3" d="M172.1,344.5c0-1.2,0.6-1.9,1.8-1.9c1.2,0,1.8,0.7,1.8,1.9v3.9c0,1.2-0.6,1.9-1.8,1.9
					c-1.2,0-1.8-0.7-1.8-1.9V344.5z M173.3,348.4c0,0.5,0.2,0.7,0.6,0.7c0.4,0,0.6-0.2,0.6-0.7v-4c0-0.5-0.2-0.7-0.6-0.7
					c-0.4,0-0.6,0.2-0.6,0.7V348.4z"/>
				<path class="st3" d="M172.9,354.3c0.9,0,1.1-0.4,1.3-0.9h0.8v7.5h-1.2v-5.7h-0.9V354.3z"/>
				<path class="st3" d="M172.1,365.8c0-1.2,0.6-1.9,1.8-1.9c1.2,0,1.8,0.7,1.8,1.9v3.9c0,1.2-0.6,1.9-1.8,1.9
					c-1.2,0-1.8-0.7-1.8-1.9V365.8z M173.3,369.8c0,0.5,0.2,0.7,0.6,0.7c0.4,0,0.6-0.2,0.6-0.7v-4c0-0.5-0.2-0.7-0.6-0.7
					c-0.4,0-0.6,0.2-0.6,0.7V369.8z"/>
				<path class="st3" d="M173.3,391.2c0,0.5,0.2,0.7,0.6,0.7c0.4,0,0.6-0.2,0.6-0.7v-4c0-0.5-0.2-0.7-0.6-0.7
					c-0.4,0-0.6,0.2-0.6,0.7V391.2z"/>
				<path class="st3" d="M172.9,397.1c0.9,0,1.1-0.4,1.3-0.9h0.8v7.5h-1.2v-5.7h-0.9V397.1z"/>
				<path class="st3" d="M172.9,407.8c0.9,0,1.1-0.4,1.3-0.9h0.8v7.5h-1.2v-5.7h-0.9V407.8z"/>
				<path class="st3" d="M172.1,440.7c0-1.2,0.6-1.9,1.8-1.9c1.2,0,1.8,0.7,1.8,1.9v3.9c0,1.2-0.6,1.9-1.8,1.9
					c-1.2,0-1.8-0.7-1.8-1.9V440.7z M173.3,444.7c0,0.5,0.2,0.7,0.6,0.7c0.4,0,0.6-0.2,0.6-0.7v-4c0-0.5-0.2-0.7-0.6-0.7
					c-0.4,0-0.6,0.2-0.6,0.7V444.7z"/>
			</g>
			<g>
				<path class="st3" d="M159.4,301.7c0-1.2,0.6-1.9,1.8-1.9c1.2,0,1.8,0.7,1.8,1.9v3.9c0,1.2-0.6,1.9-1.8,1.9
					c-1.2,0-1.8-0.7-1.8-1.9V301.7z M160.6,305.7c0,0.5,0.2,0.7,0.6,0.7c0.4,0,0.6-0.2,0.6-0.7v-4c0-0.5-0.2-0.7-0.6-0.7
					c-0.4,0-0.6,0.2-0.6,0.7V305.7z"/>
				<path class="st3" d="M160.2,311.5c0.9,0,1.1-0.4,1.3-0.9h0.8v7.5h-1.2v-5.7h-0.9V311.5z"/>
				<path class="st3" d="M160.2,322.2c0.9,0,1.1-0.4,1.3-0.9h0.8v7.5h-1.2v-5.7h-0.9V322.2z"/>
				<path class="st3" d="M159.4,333.8c0-1.2,0.6-1.9,1.8-1.9c1.2,0,1.8,0.7,1.8,1.9v3.9c0,1.2-0.6,1.9-1.8,1.9
					c-1.2,0-1.8-0.7-1.8-1.9V333.8z M160.6,337.7c0,0.5,0.2,0.7,0.6,0.7c0.4,0,0.6-0.2,0.6-0.7v-4c0-0.5-0.2-0.7-0.6-0.7
					c-0.4,0-0.6,0.2-0.6,0.7V337.7z"/>
				<path class="st3" d="M159.4,355.2c0-1.2,0.6-1.9,1.8-1.9c1.2,0,1.8,0.7,1.8,1.9v3.9c0,1.2-0.6,1.9-1.8,1.9
					c-1.2,0-1.8-0.7-1.8-1.9V355.2z M160.6,359.1c0,0.5,0.2,0.7,0.6,0.7c0.4,0,0.6-0.2,0.6-0.7v-4c0-0.5-0.2-0.7-0.6-0.7
					c-0.4,0-0.6,0.2-0.6,0.7V359.1z"/>
				<path class="st3" d="M159.4,365.8c0-1.2,0.6-1.9,1.8-1.9c1.2,0,1.8,0.7,1.8,1.9v3.9c0,1.2-0.6,1.9-1.8,1.9
					c-1.2,0-1.8-0.7-1.8-1.9V365.8z M160.6,369.8c0,0.5,0.2,0.7,0.6,0.7c0.4,0,0.6-0.2,0.6-0.7v-4c0-0.5-0.2-0.7-0.6-0.7
					c-0.4,0-0.6,0.2-0.6,0.7V369.8z"/>
				<path class="st3" d="M160.2,375.7c0.9,0,1.1-0.4,1.3-0.9h0.8v7.5h-1.2v-5.7h-0.9V375.7z"/>
				<path class="st3" d="M159.4,387.2c0-1.2,0.6-1.9,1.8-1.9c1.2,0,1.8,0.7,1.8,1.9v3.9c0,1.2-0.6,1.9-1.8,1.9
					c-1.2,0-1.8-0.7-1.8-1.9V387.2z M160.6,391.2c0,0.5,0.2,0.7,0.6,0.7c0.4,0,0.6-0.2,0.6-0.7v-4c0-0.5-0.2-0.7-0.6-0.7
					c-0.4,0-0.6,0.2-0.6,0.7V391.2z"/>
				<path class="st3" d="M160.2,397.1c0.9,0,1.1-0.4,1.3-0.9h0.8v7.5h-1.2v-5.7h-0.9V397.1z"/>
			</g>
			<g>
				<path class="st3" d="M153,280.3c0-1.2,0.6-1.9,1.8-1.9c1.2,0,1.8,0.7,1.8,1.9v3.9c0,1.2-0.6,1.9-1.8,1.9c-1.2,0-1.8-0.7-1.8-1.9
					V280.3z M154.2,284.3c0,0.5,0.2,0.7,0.6,0.7c0.4,0,0.6-0.2,0.6-0.7v-4c0-0.5-0.2-0.7-0.6-0.7c-0.4,0-0.6,0.2-0.6,0.7V284.3z"/>
				<path class="st3" d="M153.9,300.8c0.9,0,1.1-0.4,1.3-0.9h0.8v7.5h-1.2v-5.7h-0.9V300.8z"/>
				<path class="st3" d="M153.9,322.2c0.9,0,1.1-0.4,1.3-0.9h0.8v7.5h-1.2v-5.7h-0.9V322.2z"/>
				<path class="st3" d="M153,333.8c0-1.2,0.6-1.9,1.8-1.9c1.2,0,1.8,0.7,1.8,1.9v3.9c0,1.2-0.6,1.9-1.8,1.9c-1.2,0-1.8-0.7-1.8-1.9
					V333.8z M154.2,337.7c0,0.5,0.2,0.7,0.6,0.7c0.4,0,0.6-0.2,0.6-0.7v-4c0-0.5-0.2-0.7-0.6-0.7c-0.4,0-0.6,0.2-0.6,0.7V337.7z"/>
				<path class="st3" d="M153.9,365c0.9,0,1.1-0.4,1.3-0.9h0.8v7.5h-1.2v-5.7h-0.9V365z"/>
				<path class="st3" d="M153.9,375.7c0.9,0,1.1-0.4,1.3-0.9h0.8v7.5h-1.2v-5.7h-0.9V375.7z"/>
				<path class="st3" d="M153.9,386.4c0.9,0,1.1-0.4,1.3-0.9h0.8v7.5h-1.2v-5.7h-0.9V386.4z"/>
			</g>
		</g>
		<g>
			<g>
				<path class="st4" d="M353,23.2c0-1.2,0.6-1.9,1.8-1.9c1.2,0,1.8,0.7,1.8,1.9V27c0,1.2-0.6,1.9-1.8,1.9c-1.2,0-1.8-0.7-1.8-1.9
					V23.2z M354.1,27.1c0,0.5,0.2,0.7,0.6,0.7s0.6-0.2,0.6-0.7v-4c0-0.5-0.2-0.7-0.6-0.7s-0.6,0.2-0.6,0.7V27.1z"/>
				<path class="st4" d="M353,33.8c0-1.2,0.6-1.9,1.8-1.9c1.2,0,1.8,0.7,1.8,1.9v3.9c0,1.2-0.6,1.9-1.8,1.9c-1.2,0-1.8-0.7-1.8-1.9
					V33.8z M354.1,37.8c0,0.5,0.2,0.7,0.6,0.7s0.6-0.2,0.6-0.7v-4c0-0.5-0.2-0.7-0.6-0.7s-0.6,0.2-0.6,0.7V37.8z"/>
				<path class="st4" d="M353.8,65.1c0.9,0,1.1-0.4,1.3-0.9h0.8v7.5h-1.2v-5.7h-0.9V65.1z"/>
				<path class="st4" d="M353.8,75.8c0.9,0,1.1-0.4,1.3-0.9h0.8v7.5h-1.2v-5.7h-0.9V75.8z"/>
				<path class="st4" d="M353,108.7c0-1.2,0.6-1.9,1.8-1.9c1.2,0,1.8,0.7,1.8,1.9v3.9c0,1.2-0.6,1.9-1.8,1.9c-1.2,0-1.8-0.7-1.8-1.9
					V108.7z M354.1,112.7c0,0.5,0.2,0.7,0.6,0.7s0.6-0.2,0.6-0.7v-4c0-0.5-0.2-0.7-0.6-0.7s-0.6,0.2-0.6,0.7V112.7z"/>
				<path class="st4" d="M353,130.1c0-1.2,0.6-1.9,1.8-1.9c1.2,0,1.8,0.7,1.8,1.9v3.9c0,1.2-0.6,1.9-1.8,1.9c-1.2,0-1.8-0.7-1.8-1.9
					V130.1z M354.1,134c0,0.5,0.2,0.7,0.6,0.7s0.6-0.2,0.6-0.7v-4c0-0.5-0.2-0.7-0.6-0.7s-0.6,0.2-0.6,0.7V134z"/>
			</g>
			<g>
				<path class="st4" d="M333.9,44.5c0-1.2,0.6-1.9,1.8-1.9c1.2,0,1.8,0.7,1.8,1.9v3.9c0,1.2-0.6,1.9-1.8,1.9
					c-1.2,0-1.8-0.7-1.8-1.9V44.5z M335.1,48.5c0,0.5,0.2,0.7,0.6,0.7s0.6-0.2,0.6-0.7v-4c0-0.5-0.2-0.7-0.6-0.7s-0.6,0.2-0.6,0.7
					V48.5z"/>
				<path class="st4" d="M333.9,55.2c0-1.2,0.6-1.9,1.8-1.9c1.2,0,1.8,0.7,1.8,1.9v3.9c0,1.2-0.6,1.9-1.8,1.9
					c-1.2,0-1.8-0.7-1.8-1.9V55.2z M335.1,59.2c0,0.5,0.2,0.7,0.6,0.7s0.6-0.2,0.6-0.7v-4c0-0.5-0.2-0.7-0.6-0.7s-0.6,0.2-0.6,0.7
					V59.2z"/>
				<path class="st4" d="M333.9,65.9c0-1.2,0.6-1.9,1.8-1.9c1.2,0,1.8,0.7,1.8,1.9v3.9c0,1.2-0.6,1.9-1.8,1.9
					c-1.2,0-1.8-0.7-1.8-1.9V65.9z M335.1,69.9c0,0.5,0.2,0.7,0.6,0.7s0.6-0.2,0.6-0.7v-4c0-0.5-0.2-0.7-0.6-0.7s-0.6,0.2-0.6,0.7
					V69.9z"/>
				<path class="st4" d="M334.7,75.8c0.9,0,1.1-0.4,1.3-0.9h0.8v7.5h-1.2v-5.7h-0.9V75.8z"/>
				<path class="st4" d="M334.7,97.1c0.9,0,1.1-0.4,1.3-0.9h0.8v7.5h-1.2V98h-0.9V97.1z"/>
				<path class="st4" d="M334.7,107.8c0.9,0,1.1-0.4,1.3-0.9h0.8v7.5h-1.2v-5.7h-0.9V107.8z"/>
				<path class="st4" d="M333.9,130.1c0-1.2,0.6-1.9,1.8-1.9c1.2,0,1.8,0.7,1.8,1.9v3.9c0,1.2-0.6,1.9-1.8,1.9
					c-1.2,0-1.8-0.7-1.8-1.9V130.1z M335.1,134c0,0.5,0.2,0.7,0.6,0.7s0.6-0.2,0.6-0.7v-4c0-0.5-0.2-0.7-0.6-0.7s-0.6,0.2-0.6,0.7
					V134z"/>
				<path class="st4" d="M334.7,139.9c0.9,0,1.1-0.4,1.3-0.9h0.8v7.5h-1.2v-5.7h-0.9V139.9z"/>
			</g>
			<g>
				<path class="st4" d="M346.6,23.2c0-1.2,0.6-1.9,1.8-1.9c1.2,0,1.8,0.7,1.8,1.9V27c0,1.2-0.6,1.9-1.8,1.9c-1.2,0-1.8-0.7-1.8-1.9
					V23.2z M347.8,27.1c0,0.5,0.2,0.7,0.6,0.7s0.6-0.2,0.6-0.7v-4c0-0.5-0.2-0.7-0.6-0.7s-0.6,0.2-0.6,0.7V27.1z"/>
				<path class="st4" d="M347.4,33c0.9,0,1.1-0.4,1.3-0.9h0.8v7.5h-1.2v-5.7h-0.9V33z"/>
				<path class="st4" d="M346.6,44.5c0-1.2,0.6-1.9,1.8-1.9c1.2,0,1.8,0.7,1.8,1.9v3.9c0,1.2-0.6,1.9-1.8,1.9
					c-1.2,0-1.8-0.7-1.8-1.9V44.5z M347.8,48.5c0,0.5,0.2,0.7,0.6,0.7s0.6-0.2,0.6-0.7v-4c0-0.5-0.2-0.7-0.6-0.7s-0.6,0.2-0.6,0.7
					V48.5z"/>
				<path class="st4" d="M347.4,54.4c0.9,0,1.1-0.4,1.3-0.9h0.8v7.5h-1.2v-5.7h-0.9V54.4z"/>
				<path class="st4" d="M347.4,65.1c0.9,0,1.1-0.4,1.3-0.9h0.8v7.5h-1.2v-5.7h-0.9V65.1z"/>
				<path class="st4" d="M347.4,75.8c0.9,0,1.1-0.4,1.3-0.9h0.8v7.5h-1.2v-5.7h-0.9V75.8z"/>
				<path class="st4" d="M346.6,87.3c0-1.2,0.6-1.9,1.8-1.9c1.2,0,1.8,0.7,1.8,1.9v3.9c0,1.2-0.6,1.9-1.8,1.9
					c-1.2,0-1.8-0.7-1.8-1.9V87.3z M347.8,91.3c0,0.5,0.2,0.7,0.6,0.7s0.6-0.2,0.6-0.7v-4c0-0.5-0.2-0.7-0.6-0.7s-0.6,0.2-0.6,0.7
					V91.3z"/>
				<path class="st4" d="M346.6,98c0-1.2,0.6-1.9,1.8-1.9c1.2,0,1.8,0.7,1.8,1.9v3.9c0,1.2-0.6,1.9-1.8,1.9c-1.2,0-1.8-0.7-1.8-1.9
					V98z M347.8,102c0,0.5,0.2,0.7,0.6,0.7s0.6-0.2,0.6-0.7v-4c0-0.5-0.2-0.7-0.6-0.7s-0.6,0.2-0.6,0.7V102z"/>
			</g>
			<g>
				<path class="st4" d="M341.1,33c0.9,0,1.1-0.4,1.3-0.9h0.8v7.5H342v-5.7h-0.9V33z"/>
				<path class="st4" d="M340.3,44.5c0-1.2,0.6-1.9,1.8-1.9c1.2,0,1.8,0.7,1.8,1.9v3.9c0,1.2-0.6,1.9-1.8,1.9
					c-1.2,0-1.8-0.7-1.8-1.9V44.5z M341.4,48.5c0,0.5,0.2,0.7,0.6,0.7c0.4,0,0.6-0.2,0.6-0.7v-4c0-0.5-0.2-0.7-0.6-0.7
					c-0.4,0-0.6,0.2-0.6,0.7V48.5z"/>
				<path class="st4" d="M340.3,55.2c0-1.2,0.6-1.9,1.8-1.9c1.2,0,1.8,0.7,1.8,1.9v3.9c0,1.2-0.6,1.9-1.8,1.9
					c-1.2,0-1.8-0.7-1.8-1.9V55.2z M341.4,59.2c0,0.5,0.2,0.7,0.6,0.7c0.4,0,0.6-0.2,0.6-0.7v-4c0-0.5-0.2-0.7-0.6-0.7
					c-0.4,0-0.6,0.2-0.6,0.7V59.2z"/>
				<path class="st4" d="M341.1,65.1c0.9,0,1.1-0.4,1.3-0.9h0.8v7.5H342v-5.7h-0.9V65.1z"/>
				<path class="st4" d="M341.1,86.5c0.9,0,1.1-0.4,1.3-0.9h0.8V93H342v-5.7h-0.9V86.5z"/>
				<path class="st4" d="M341.1,97.1c0.9,0,1.1-0.4,1.3-0.9h0.8v7.5H342V98h-0.9V97.1z"/>
				<path class="st4" d="M341.1,107.8c0.9,0,1.1-0.4,1.3-0.9h0.8v7.5H342v-5.7h-0.9V107.8z"/>
			</g>
		</g>
		<g>
			<g>
				<path class="st4" d="M53.7,141.5c0-1.2,0.6-1.9,1.8-1.9c1.2,0,1.8,0.7,1.8,1.9v3.9c0,1.2-0.6,1.9-1.8,1.9
					c-1.2,0-1.8-0.7-1.8-1.9V141.5z M54.9,145.5c0,0.5,0.2,0.7,0.6,0.7c0.4,0,0.6-0.2,0.6-0.7v-4c0-0.5-0.2-0.7-0.6-0.7
					c-0.4,0-0.6,0.2-0.6,0.7V145.5z"/>
				<path class="st4" d="M53.7,152.2c0-1.2,0.6-1.9,1.8-1.9c1.2,0,1.8,0.7,1.8,1.9v3.9c0,1.2-0.6,1.9-1.8,1.9
					c-1.2,0-1.8-0.7-1.8-1.9V152.2z M54.9,156.2c0,0.5,0.2,0.7,0.6,0.7c0.4,0,0.6-0.2,0.6-0.7v-4c0-0.5-0.2-0.7-0.6-0.7
					c-0.4,0-0.6,0.2-0.6,0.7V156.2z"/>
				<path class="st4" d="M54.5,162.1c0.9,0,1.1-0.4,1.3-0.9h0.8v7.5h-1.2v-5.7h-0.9V162.1z"/>
				<path class="st4" d="M53.7,173.6c0-1.2,0.6-1.9,1.8-1.9c1.2,0,1.8,0.7,1.8,1.9v3.9c0,1.2-0.6,1.9-1.8,1.9
					c-1.2,0-1.8-0.7-1.8-1.9V173.6z M54.9,177.6c0,0.5,0.2,0.7,0.6,0.7c0.4,0,0.6-0.2,0.6-0.7v-4c0-0.5-0.2-0.7-0.6-0.7
					c-0.4,0-0.6,0.2-0.6,0.7V177.6z"/>
				<path class="st4" d="M54.5,183.5c0.9,0,1.1-0.4,1.3-0.9h0.8v7.5h-1.2v-5.7h-0.9V183.5z"/>
				<path class="st4" d="M53.7,195c0-1.2,0.6-1.9,1.8-1.9c1.2,0,1.8,0.7,1.8,1.9v3.9c0,1.2-0.6,1.9-1.8,1.9c-1.2,0-1.8-0.7-1.8-1.9
					V195z M54.9,199c0,0.5,0.2,0.7,0.6,0.7c0.4,0,0.6-0.2,0.6-0.7v-4c0-0.5-0.2-0.7-0.6-0.7c-0.4,0-0.6,0.2-0.6,0.7V199z"/>
				<path class="st4" d="M54.5,204.8c0.9,0,1.1-0.4,1.3-0.9h0.8v7.5h-1.2v-5.7h-0.9V204.8z"/>
				<path class="st4" d="M53.7,216.4c0-1.2,0.6-1.9,1.8-1.9c1.2,0,1.8,0.7,1.8,1.9v3.9c0,1.2-0.6,1.9-1.8,1.9
					c-1.2,0-1.8-0.7-1.8-1.9V216.4z M54.9,220.4c0,0.5,0.2,0.7,0.6,0.7c0.4,0,0.6-0.2,0.6-0.7v-4c0-0.5-0.2-0.7-0.6-0.7
					c-0.4,0-0.6,0.2-0.6,0.7V220.4z"/>
				<path class="st4" d="M53.7,227.1c0-1.2,0.6-1.9,1.8-1.9c1.2,0,1.8,0.7,1.8,1.9v3.9c0,1.2-0.6,1.9-1.8,1.9
					c-1.2,0-1.8-0.7-1.8-1.9V227.1z M54.9,231c0,0.5,0.2,0.7,0.6,0.7c0.4,0,0.6-0.2,0.6-0.7v-4c0-0.5-0.2-0.7-0.6-0.7
					c-0.4,0-0.6,0.2-0.6,0.7V231z"/>
				<path class="st4" d="M53.7,237.8c0-1.2,0.6-1.9,1.8-1.9c1.2,0,1.8,0.7,1.8,1.9v3.9c0,1.2-0.6,1.9-1.8,1.9
					c-1.2,0-1.8-0.7-1.8-1.9V237.8z M54.9,241.7c0,0.5,0.2,0.7,0.6,0.7c0.4,0,0.6-0.2,0.6-0.7v-4c0-0.5-0.2-0.7-0.6-0.7
					c-0.4,0-0.6,0.2-0.6,0.7V241.7z"/>
				<path class="st4" d="M54.5,258.3c0.9,0,1.1-0.4,1.3-0.9h0.8v7.5h-1.2v-5.7h-0.9V258.3z"/>
			</g>
			<g>
				<path class="st4" d="M60.9,183.5c0.9,0,1.1-0.4,1.3-0.9H63v7.5h-1.2v-5.7h-0.9V183.5z"/>
				<path class="st4" d="M60.9,194.1c0.9,0,1.1-0.4,1.3-0.9H63v7.5h-1.2V195h-0.9V194.1z"/>
				<path class="st4" d="M60.1,205.7c0-1.2,0.6-1.9,1.8-1.9c1.2,0,1.8,0.7,1.8,1.9v3.9c0,1.2-0.6,1.9-1.8,1.9
					c-1.2,0-1.8-0.7-1.8-1.9V205.7z M61.3,209.7c0,0.5,0.2,0.7,0.6,0.7c0.4,0,0.6-0.2,0.6-0.7v-4c0-0.5-0.2-0.7-0.6-0.7
					c-0.4,0-0.6,0.2-0.6,0.7V209.7z"/>
				<path class="st4" d="M60.1,216.4c0-1.2,0.6-1.9,1.8-1.9c1.2,0,1.8,0.7,1.8,1.9v3.9c0,1.2-0.6,1.9-1.8,1.9
					c-1.2,0-1.8-0.7-1.8-1.9V216.4z M61.3,220.4c0,0.5,0.2,0.7,0.6,0.7c0.4,0,0.6-0.2,0.6-0.7v-4c0-0.5-0.2-0.7-0.6-0.7
					c-0.4,0-0.6,0.2-0.6,0.7V220.4z"/>
				<path class="st4" d="M60.9,226.2c0.9,0,1.1-0.4,1.3-0.9H63v7.5h-1.2v-5.7h-0.9V226.2z"/>
				<path class="st4" d="M60.9,247.6c0.9,0,1.1-0.4,1.3-0.9H63v7.5h-1.2v-5.7h-0.9V247.6z"/>
			</g>
			<g>
				<path class="st4" d="M47.4,173.6c0-1.2,0.6-1.9,1.8-1.9c1.2,0,1.8,0.7,1.8,1.9v3.9c0,1.2-0.6,1.9-1.8,1.9
					c-1.2,0-1.8-0.7-1.8-1.9V173.6z M48.5,177.6c0,0.5,0.2,0.7,0.6,0.7c0.4,0,0.6-0.2,0.6-0.7v-4c0-0.5-0.2-0.7-0.6-0.7
					c-0.4,0-0.6,0.2-0.6,0.7V177.6z"/>
				<path class="st4" d="M48.2,183.5c0.9,0,1.1-0.4,1.3-0.9h0.8v7.5h-1.2v-5.7h-0.9V183.5z"/>
				<path class="st4" d="M48.2,194.1c0.9,0,1.1-0.4,1.3-0.9h0.8v7.5h-1.2V195h-0.9V194.1z"/>
				<path class="st4" d="M47.4,205.7c0-1.2,0.6-1.9,1.8-1.9c1.2,0,1.8,0.7,1.8,1.9v3.9c0,1.2-0.6,1.9-1.8,1.9
					c-1.2,0-1.8-0.7-1.8-1.9V205.7z M48.5,209.7c0,0.5,0.2,0.7,0.6,0.7c0.4,0,0.6-0.2,0.6-0.7v-4c0-0.5-0.2-0.7-0.6-0.7
					c-0.4,0-0.6,0.2-0.6,0.7V209.7z"/>
				<path class="st4" d="M48.2,215.5c0.9,0,1.1-0.4,1.3-0.9h0.8v7.5h-1.2v-5.7h-0.9V215.5z"/>
				<path class="st4" d="M47.4,227.1c0-1.2,0.6-1.9,1.8-1.9c1.2,0,1.8,0.7,1.8,1.9v3.9c0,1.2-0.6,1.9-1.8,1.9
					c-1.2,0-1.8-0.7-1.8-1.9V227.1z M48.5,231c0,0.5,0.2,0.7,0.6,0.7c0.4,0,0.6-0.2,0.6-0.7v-4c0-0.5-0.2-0.7-0.6-0.7
					c-0.4,0-0.6,0.2-0.6,0.7V231z"/>
			</g>
			<g>
				<path class="st4" d="M41,152.2c0-1.2,0.6-1.9,1.8-1.9c1.2,0,1.8,0.7,1.8,1.9v3.9c0,1.2-0.6,1.9-1.8,1.9c-1.2,0-1.8-0.7-1.8-1.9
					V152.2z M42.2,156.2c0,0.5,0.2,0.7,0.6,0.7c0.4,0,0.6-0.2,0.6-0.7v-4c0-0.5-0.2-0.7-0.6-0.7c-0.4,0-0.6,0.2-0.6,0.7V156.2z"/>
				<path class="st4" d="M41.8,172.8c0.9,0,1.1-0.4,1.3-0.9h0.8v7.5h-1.2v-5.7h-0.9V172.8z"/>
				<path class="st4" d="M41,184.3c0-1.2,0.6-1.9,1.8-1.9c1.2,0,1.8,0.7,1.8,1.9v3.9c0,1.2-0.6,1.9-1.8,1.9c-1.2,0-1.8-0.7-1.8-1.9
					V184.3z M42.2,188.3c0,0.5,0.2,0.7,0.6,0.7c0.4,0,0.6-0.2,0.6-0.7v-4c0-0.5-0.2-0.7-0.6-0.7c-0.4,0-0.6,0.2-0.6,0.7V188.3z"/>
				<path class="st4" d="M41,205.7c0-1.2,0.6-1.9,1.8-1.9c1.2,0,1.8,0.7,1.8,1.9v3.9c0,1.2-0.6,1.9-1.8,1.9c-1.2,0-1.8-0.7-1.8-1.9
					V205.7z M42.2,209.7c0,0.5,0.2,0.7,0.6,0.7c0.4,0,0.6-0.2,0.6-0.7v-4c0-0.5-0.2-0.7-0.6-0.7c-0.4,0-0.6,0.2-0.6,0.7V209.7z"/>
				<path class="st4" d="M41,216.4c0-1.2,0.6-1.9,1.8-1.9c1.2,0,1.8,0.7,1.8,1.9v3.9c0,1.2-0.6,1.9-1.8,1.9c-1.2,0-1.8-0.7-1.8-1.9
					V216.4z M42.2,220.4c0,0.5,0.2,0.7,0.6,0.7c0.4,0,0.6-0.2,0.6-0.7v-4c0-0.5-0.2-0.7-0.6-0.7c-0.4,0-0.6,0.2-0.6,0.7V220.4z"/>
				<path class="st4" d="M41,227.1c0-1.2,0.6-1.9,1.8-1.9c1.2,0,1.8,0.7,1.8,1.9v3.9c0,1.2-0.6,1.9-1.8,1.9c-1.2,0-1.8-0.7-1.8-1.9
					V227.1z M42.2,231c0,0.5,0.2,0.7,0.6,0.7c0.4,0,0.6-0.2,0.6-0.7v-4c0-0.5-0.2-0.7-0.6-0.7c-0.4,0-0.6,0.2-0.6,0.7V231z"/>
				<path class="st4" d="M41.8,258.3c0.9,0,1.1-0.4,1.3-0.9h0.8v7.5h-1.2v-5.7h-0.9V258.3z"/>
			</g>
		</g>
		<g>
			<g>
				<path class="st4" d="M399.9,252.3c-0.1,0-0.1,0-0.2,0c-33.3-13.5-36.1-59.9-36.1-60.4c0-0.1,0-0.3,0.1-0.4
					c0.1-0.1,0.2-0.2,0.4-0.2h6.6v-5c0-0.3,0.2-0.5,0.5-0.5c16.5,0,28.2-10.3,28.3-10.4c0.2-0.2,0.5-0.2,0.7,0
					c0.1,0.1,11.8,10.4,28.3,10.4c0.3,0,0.5,0.2,0.5,0.5v5h6.6c0.1,0,0.3,0.1,0.4,0.2c0.1,0.1,0.1,0.2,0.1,0.4
					c0,0.5-2.8,46.9-36.1,60.4C400.1,252.3,400,252.3,399.9,252.3z M364.7,192.4c0.4,5.1,4.6,46.4,35.2,58.9
					c30.6-12.6,34.8-53.8,35.2-58.9h-6.6c-0.3,0-0.5-0.2-0.5-0.5v-5c-15.1-0.2-26.1-8.7-28.1-10.4c-2,1.7-13,10.2-28.1,10.4v5
					c0,0.3-0.2,0.5-0.5,0.5H364.7z"/>
			</g>
			<g>
				<path class="st4" d="M400,246.2c-0.1,0-0.1,0-0.2,0c-22.2-10.4-28.5-38-30.2-49.4c0-0.1,0-0.3,0.1-0.4c0.1-0.1,0.2-0.2,0.4-0.2
					h6v-5.3c0-0.3,0.2-0.5,0.4-0.5c10.8-1.2,19.2-6,23.2-8.8c0.2-0.1,0.4-0.1,0.6,0c4,2.8,12.4,7.6,23.2,8.8c0.3,0,0.4,0.2,0.4,0.5
					v5.3h6c0.1,0,0.3,0.1,0.4,0.2s0.1,0.3,0.1,0.4c-1.7,11.4-8.1,39-30.2,49.4C400.1,246.2,400,246.2,400,246.2z M370.6,197.2
					c1.8,11.5,8.1,37.9,29.4,48c21.1-10.1,27.5-36.4,29.3-48h-5.9c-0.3,0-0.5-0.2-0.5-0.5v-5.4c-10.5-1.3-18.8-5.9-22.9-8.7
					c-4.1,2.8-12.4,7.4-22.9,8.7v5.4c0,0.3-0.2,0.5-0.5,0.5H370.6z"/>
			</g>
			<g>
				<g>
					<path class="st4" d="M411.8,224.2h-23.6c-0.7,0-1.4-0.6-1.4-1.4v-14.2c0-0.7,0.6-1.4,1.4-1.4h23.6c0.7,0,1.4,0.6,1.4,1.4v14.2
						C413.1,223.6,412.5,224.2,411.8,224.2z"/>
				</g>
				<g>
					<path class="st4" d="M400.4,193c-5.4-0.3-9.9,4.1-9.9,9.4v1c0,0.4,0.3,0.7,0.7,0.7h2.4c0.4,0,0.7-0.3,0.7-0.7v-0.8
						c0-3.1,2.3-5.7,5.3-5.9c3.3-0.2,6.1,2.4,6.1,5.7v1c0,0.4,0.3,0.7,0.7,0.7h2.4c0.4,0,0.7-0.3,0.7-0.7v-0.7
						C409.4,197.6,405.5,193.3,400.4,193z"/>
				</g>
				<g>
					<path class="st4" d="M402.4,213.8c0-1.4-1.1-2.5-2.5-2.5s-2.5,1.1-2.5,2.5c0,1,0.6,1.8,1.4,2.2l-0.9,4h3.9l-0.9-4
						C401.8,215.7,402.4,214.8,402.4,213.8z"/>
					<path class="st4" d="M401.9,220.5h-4c-0.2,0-0.3-0.1-0.4-0.2s-0.1-0.3-0.1-0.4l0.8-3.6c-0.8-0.5-1.3-1.5-1.3-2.5
						c0-1.6,1.3-3,3-3s3,1.3,3,3c0,1-0.5,1.9-1.3,2.5l0.8,3.6c0,0.1,0,0.3-0.1,0.4S402.1,220.5,401.9,220.5z M398.6,219.5h2.7
						l-0.8-3.4c-0.1-0.2,0.1-0.5,0.3-0.6c0.7-0.3,1.1-1,1.1-1.8c0-1.1-0.9-2-2-2c-1.1,0-2,0.9-2,2c0,0.8,0.4,1.4,1.1,1.8
						c0.2,0.1,0.3,0.3,0.3,0.6L398.6,219.5z"/>
				</g>
			</g>
		</g>
		<g>
			<g>
				<path class="st3" d="M294.6,91.7h-80.7c-2.1,0-3.8-1.7-3.8-3.8V42.3c0-2.1,1.7-3.8,3.8-3.8h80.7c2.1,0,3.8,1.7,3.8,3.8v45.5
					C298.4,89.9,296.7,91.7,294.6,91.7z M213.9,39.5c-1.6,0-2.8,1.3-2.8,2.8v45.5c0,1.6,1.3,2.8,2.8,2.8h80.7c1.6,0,2.8-1.3,2.8-2.8
					V42.3c0-1.6-1.3-2.8-2.8-2.8H213.9z"/>
			</g>
			<g>
				<g>
					<path class="st3" d="M244,84.4h-25.3c-0.9,0-1.6-0.7-1.6-1.6V47.4c0-0.9,0.7-1.6,1.6-1.6H244c0.9,0,1.6,0.7,1.6,1.6v35.3
						C245.6,83.6,244.9,84.4,244,84.4z M218.7,46.8c-0.4,0-0.6,0.3-0.6,0.6v35.3c0,0.4,0.3,0.6,0.6,0.6H244c0.4,0,0.6-0.3,0.6-0.6
						V47.4c0-0.4-0.3-0.6-0.6-0.6H218.7z"/>
				</g>
				<g>
					<path class="st3" d="M231.3,83.9h-12.6c-0.7,0-1.2-0.6-1.2-1.2v-8.7c0,0,7.1-0.3,8.2-1.8c1.2-1.5-0.1-3.8-0.1-3.8
						c-0.4-0.5-0.5-4.3-0.5-4.3s0,0-0.4-0.1c-0.4-0.1-1-3.2-1-4.4c0-1.2,1-1.6,1-1.6s-1.1-7.6,6.7-7.6s6.7,7.6,6.7,7.6s1,0.4,1,1.6
						c0,1.2-0.5,4.3-1,4.4c-0.4,0.1-0.4,0.1-0.4,0.1s-0.1,3.8-0.5,4.3c0,0-1.3,2.3-0.1,3.8c1.2,1.5,8.2,1.8,8.2,1.8v8.7
						c0,0.7-0.6,1.2-1.2,1.2H231.3z"/>
				</g>
			</g>
			<g>
				<g>
					<path class="st3" d="M289.2,84H272c-0.7,0-1.3-0.6-1.3-1.3l0,0c0-0.7,0.6-1.3,1.3-1.3h17.2c0.7,0,1.3,0.6,1.3,1.3l0,0
						C290.5,83.5,289.9,84,289.2,84z"/>
				</g>
				<g>
					<path class="st3" d="M289.2,48.7h-35.6c-0.7,0-1.3-0.6-1.3-1.3l0,0c0-0.7,0.6-1.3,1.3-1.3h35.6c0.7,0,1.3,0.6,1.3,1.3l0,0
						C290.5,48.1,289.9,48.7,289.2,48.7z"/>
				</g>
				<g>
					<path class="st3" d="M274,57.5h-20.4c-0.7,0-1.3-0.6-1.3-1.3l0,0c0-0.7,0.6-1.3,1.3-1.3H274c0.7,0,1.3,0.6,1.3,1.3l0,0
						C275.3,57,274.7,57.5,274,57.5z"/>
				</g>
				<g>
					<path class="st3" d="M267.5,66.4h-13.9c-0.7,0-1.3-0.6-1.3-1.3l0,0c0-0.7,0.6-1.3,1.3-1.3h13.9c0.7,0,1.3,0.6,1.3,1.3l0,0
						C268.8,65.8,268.2,66.4,267.5,66.4z"/>
				</g>
				<g>
					<path class="st3" d="M274,75.2h-20.4c-0.7,0-1.3-0.6-1.3-1.3l0,0c0-0.7,0.6-1.3,1.3-1.3H274c0.7,0,1.3,0.6,1.3,1.3l0,0
						C275.3,74.6,274.7,75.2,274,75.2z"/>
				</g>
			</g>
		</g>
		<g>
			<g>
				<g>
					<path class="st4" d="M114.9,242.1H79c-0.3,0-0.5-0.2-0.5-0.5v-63.7c0-0.3,0.2-0.5,0.5-0.5h49.4c0.3,0,0.5,0.2,0.5,0.5v50.2
						c0,0.1-0.1,0.3-0.1,0.4L115.3,242C115.2,242.1,115,242.1,114.9,242.1z M79.5,241.1h35.2l13.2-13.2v-49.5H79.5V241.1z"/>
				</g>
				<g>
					<polygon class="st4" points="128.4,228.1 114.9,241.6 114.9,228.1 					"/>
					<path class="st4" d="M114.9,242.1c-0.1,0-0.1,0-0.2,0c-0.2-0.1-0.3-0.3-0.3-0.5v-13.5c0-0.3,0.2-0.5,0.5-0.5h13.5
						c0.2,0,0.4,0.1,0.5,0.3c0.1,0.2,0,0.4-0.1,0.5L115.3,242C115.2,242.1,115,242.1,114.9,242.1z M115.4,228.6v11.8l11.8-11.8
						H115.4z"/>
				</g>
			</g>
			<g>
				<g>
					<path class="st4" d="M120.9,186.5H91c-0.3,0-0.5-0.2-0.5-0.5s0.2-0.5,0.5-0.5h29.8c0.3,0,0.5,0.2,0.5,0.5
						S121.1,186.5,120.9,186.5z"/>
				</g>
				<g>
					<path class="st4" d="M120.9,192.1H86.6c-0.3,0-0.5-0.2-0.5-0.5s0.2-0.5,0.5-0.5h34.3c0.3,0,0.5,0.2,0.5,0.5
						S121.1,192.1,120.9,192.1z"/>
				</g>
				<g>
					<path class="st4" d="M120.9,197.7H86.6c-0.3,0-0.5-0.2-0.5-0.5s0.2-0.5,0.5-0.5h34.3c0.3,0,0.5,0.2,0.5,0.5
						S121.1,197.7,120.9,197.7z"/>
				</g>
				<g>
					<path class="st4" d="M120.9,203.4H86.6c-0.3,0-0.5-0.2-0.5-0.5s0.2-0.5,0.5-0.5h34.3c0.3,0,0.5,0.2,0.5,0.5
						S121.1,203.4,120.9,203.4z"/>
				</g>
				<g>
					<path class="st4" d="M120.9,209H86.6c-0.3,0-0.5-0.2-0.5-0.5s0.2-0.5,0.5-0.5h34.3c0.3,0,0.5,0.2,0.5,0.5S121.1,209,120.9,209z
						"/>
				</g>
				<g>
					<path class="st4" d="M120.9,214.6H86.6c-0.3,0-0.5-0.2-0.5-0.5s0.2-0.5,0.5-0.5h34.3c0.3,0,0.5,0.2,0.5,0.5
						S121.1,214.6,120.9,214.6z"/>
				</g>
				<g>
					<path class="st4" d="M120.9,220.2H86.6c-0.3,0-0.5-0.2-0.5-0.5s0.2-0.5,0.5-0.5h34.3c0.3,0,0.5,0.2,0.5,0.5
						S121.1,220.2,120.9,220.2z"/>
				</g>
				<g>
					<path class="st4" d="M116.4,225.8H86.6c-0.3,0-0.5-0.2-0.5-0.5s0.2-0.5,0.5-0.5h29.8c0.3,0,0.5,0.2,0.5,0.5
						S116.7,225.8,116.4,225.8z"/>
				</g>
			</g>
			<g>
				<g>
					<path class="st4" d="M123,250.3H87.1c-0.3,0-0.5-0.2-0.5-0.5v-5.9c0-0.3,0.2-0.5,0.5-0.5s0.5,0.2,0.5,0.5v5.4h35.2L136,236
						v-49.5h-5.3c-0.3,0-0.5-0.2-0.5-0.5s0.2-0.5,0.5-0.5h5.8c0.3,0,0.5,0.2,0.5,0.5v50.2c0,0.1-0.1,0.3-0.1,0.4l-13.5,13.5
						C123.3,250.2,123.2,250.3,123,250.3z"/>
				</g>
				<g>
					<polygon class="st4" points="136.5,236.2 123,249.8 123,236.2 					"/>
					<path class="st4" d="M123,250.3c-0.1,0-0.1,0-0.2,0c-0.2-0.1-0.3-0.3-0.3-0.5v-13.5c0-0.3,0.2-0.5,0.5-0.5h13.5
						c0.2,0,0.4,0.1,0.5,0.3c0.1,0.2,0,0.4-0.1,0.5l-13.5,13.5C123.3,250.2,123.2,250.3,123,250.3z M123.5,236.7v11.8l11.8-11.8
						H123.5z"/>
				</g>
			</g>
		</g>
		<g>
			<path class="st5" d="M314.1,284.7H194.3c-2.3,0-4.2-1.9-4.2-4.2V147.2c0-2.3,1.9-4.2,4.2-4.2h119.8c2.3,0,4.2,1.9,4.2,4.2v133.2
				C318.4,282.8,316.5,284.7,314.1,284.7z"/>
			<g class="st6">
				<g>
					<line class="st7" x1="315.8" y1="190.2" x2="192.7" y2="190.2"/>
					<line class="st7" x1="315.8" y1="206" x2="192.7" y2="206"/>
					<line class="st7" x1="315.8" y1="221.7" x2="192.7" y2="221.7"/>
					<line class="st7" x1="315.8" y1="237.4" x2="192.7" y2="237.4"/>
					<line class="st7" x1="315.8" y1="253.2" x2="192.7" y2="253.2"/>
					<line class="st7" x1="315.8" y1="268.9" x2="192.7" y2="268.9"/>
					<line class="st7" x1="315.8" y1="174.5" x2="192.7" y2="174.5"/>
					<line class="st7" x1="315.8" y1="158.7" x2="192.7" y2="158.7"/>
				</g>
				<g>
					<line class="st7" x1="286.4" y1="282.2" x2="286.4" y2="145.5"/>
					<line class="st7" x1="270.3" y1="282.2" x2="270.3" y2="145.5"/>
					<line class="st7" x1="254.2" y1="282.2" x2="254.2" y2="145.5"/>
					<line class="st7" x1="238.2" y1="282.2" x2="238.2" y2="145.5"/>
					<line class="st7" x1="222.1" y1="282.2" x2="222.1" y2="145.5"/>
					<line class="st7" x1="206" y1="282.2" x2="206" y2="145.5"/>
					<line class="st7" x1="302.4" y1="282.2" x2="302.4" y2="145.5"/>
				</g>
			</g>
			<g>
				<g>
					<path class="st8" d="M249.8,257c1.6-7.8,3.4-14.5,5.6-20.9c0.5-1.4,1-2.8,1.6-4.2c1.4-3.6,4.3-10.9,3.2-13.1
						c-0.3-0.5-0.7-0.8-1.2-0.8c-0.1,0-0.2,0-0.3,0.1c-3.2,2.6-5.2,9.8-6.7,15.1l-0.5,1.8c-2,6.9-3.3,14.3-4.2,21.6"/>
					<path class="st8" d="M254.5,257.3c1.5-7.3,3.2-13.6,5.3-19.7c0.5-1.3,1-2.7,1.6-4.1c2.2-5.7,5-12.7,3-16.8
						c-1-2.1-3.1-3.4-5.4-3.4c-1.2,0-2.3,0.4-3.2,1.2c-4.3,3.5-6.5,11.2-8.3,17.4l-0.5,1.8c-2,6.9-3.3,14.2-4.2,21.4"/>
					<path class="st8" d="M259.3,256.9c1.3-6,2.8-11.9,4.9-17.7c2.4-6.9,7.9-17.4,4.3-24.5c-2.9-5.8-10.5-8-15.7-3.8
						c-5.9,4.8-8.3,14.6-10.3,21.5c-1.9,6.6-3.2,13.5-4.2,20.4"/>
					<path class="st8" d="M264.4,255.5c1.2-5.4,2.6-10.2,4.2-14.8c0.4-1.2,0.9-2.4,1.5-3.8c2.9-7.4,6.5-16.6,2.7-24.3
						c-2.6-5.2-8-8.6-13.7-8.6c-3.4,0-6.5,1.1-9.1,3.3c-6.6,5.4-9.2,14.7-11.3,22.1l-0.5,1.7c-1.7,6-3,12.2-3.9,18.5"/>
					<path class="st8" d="M269.8,252.8c1-3.7,2-7.2,3.2-10.6c0.4-1.1,0.9-2.3,1.4-3.6c3.1-7.8,7.3-18.5,2.5-28.1
						c-3.4-6.8-10.4-11.2-17.9-11.2c-4.4,0-8.6,1.5-12.1,4.3c-7.7,6.3-10.6,16.4-12.9,24.4l-0.5,1.7c-1.5,5-2.6,10.2-3.5,15.4"/>
					<path class="st8" d="M275.4,248.2c1.1-7.5,7-16.3,7.6-26.7c0.5-9.5-2.6-15.6-4.8-18.6c-1.1-1.5-1.3-3.5-0.7-5.2
						c1-2.8,1.8-7.4-0.1-13.4"/>
					<path class="st8" d="M261.3,170.3c7.9,4.9,13,12.7,13.4,22.6c0.1,3.6-2.8,4.8-6.4,3.7c-7.7-2.3-25.9-8.3-37,22.9
						c-2.2,6.3-3.6,13.2-4.7,19.9"/>
					<path class="st8" d="M245.6,170.9c1.9,0,8,0,14.1,3.3c7.5,4,12.2,13.4,9.8,15.8c-2.7,2.7-7.6-3.8-22.7,2.4
						c-7.3,3-12.4,9.1-16,16c-1.6,3.1-2.9,6.4-4,9.8c-1.4,4.3-2.5,8.7-3.5,13.2"/>
					<path class="st8" d="M237.1,176.6c3.1-0.9,5.9-1.1,8.2-1.1c13.4-0.3,18.4,6.8,16.9,8.6c-1.2,1.5-4,0.7-7.7,1.1
						c-10.9,1.3-19.5,7.5-25.3,16.7c-2.9,4.6-5.1,9.6-6.8,14.8c-0.3,0.9-0.6,1.9-0.9,2.8"/>
					<path class="st8" d="M230.8,184.3c6-4.7,11.6-5.3,15.8-5.2c1.7,0,5.9,0.6,6.4,2.2c0.7,2.1-6.1-0.8-15.9,5.8
						c-12.6,8.4-14.2,16.4-14.2,16.4"/>
					<path class="st8" d="M280.8,242.6c0,0,6.8-14.8,6.1-26.2c-0.4-7.4-4.1-12-4.7-15.3c-0.6-3.3,1-4.1,0.6-7.1"/>
				</g>
				<g>
					<polyline class="st8" points="198.7,173 198.7,152.1 219.6,152.1 					"/>
					<polyline class="st8" points="219.6,275.6 198.7,275.6 198.7,254.7 					"/>
					<polyline class="st8" points="309.7,173 309.7,152.1 288.9,152.1 					"/>
					<polyline class="st8" points="288.9,275.6 309.7,275.6 309.7,254.7 					"/>
				</g>
			</g>
		</g>
		<g>
			<path class="st9" d="M398.5,467.7c-5.5-8.1-11.2-16.8-15.9-23.9c0,0,0,0,0,0c-6-9.1-10.3-15.7-10.3-15.7
				c-2.3-10.8-5.6-15-8.8-23.8c-3.3-8.8-0.6-16.7,0.8-27.6c1.3-10.9-0.8-21.1-1.9-28c-1.2-6.9,0.2-13.4,0-15
				c-0.2-1.5-6.7-9.6-9.2-15.5c-1.1-2.7-2.7-5.1-4.6-7.2c-2.3-2.6-5.1-4.6-7.8-5.6c-1.4-0.5-2.7-0.9-3.9-1c-3-0.4-5.5,0.1-8,0.1
				c-3.5,0-10.7-5.9-15.5-6.9c-0.9-0.2-1.8-0.3-2.7-0.4h0c-4-0.4-8.1,0-12.8,0.4c-4.6,0.3-10-4-14.4-5.4c0,0,0,0-0.1,0
				c-1.1-0.3-2.1-0.5-3-0.3c-4.6,0.8-13.2,1.5-13.2,1.5s-0.8-5.9-1.2-14c-0.1-1.4-0.2-2.7-0.3-4.1v0c-0.4-5-1.2-9.4-1.3-13.5
				c0-1.1,0-2.1,0-3.1c0.4-5.7,0.2-10.2,0-19c0-0.3,0-0.6,0-0.9c-0.1-2.7,0-5.4-0.2-7.7c0,0,0,0,0,0c-0.3-5.7-1.6-10-7.3-10.9
				c-5-0.8-8.5,1.7-10.6,10c-2.1,8.3-3.6,7.7-4.2,19.8c-0.6,12.1-3.3,19.8-2.9,25.9c0.4,6.1-1,18-1,18c-2.3-1.2-4.4-0.2-4.8,0.8
				c-0.4,1-2.1,10.4-3.4,17.1c-1.2,6-6.6,11.5-8.6,15.6c0,0,0,0.1,0,0.1c-0.2,0.5-0.4,0.9-0.5,1.4c-1.2,4.2-0.6,13.2-0.6,24.8
				c0,11.5-2.9,23.4,0,31.1c0.6,1.5,1.4,2.9,2.5,4.3c4.4,5.5,12.5,10.2,19.9,18.9c9.2,10.9,15.7,19,21.9,22.7
				c4.4,2.6,6.3,4.7,7.1,7.5c0,0,0,0,0,0c0.3,1.1,0.5,2.3,0.5,3.7c0.1,2.4,1.4,4.3,3.6,7.4c2.3,3.1,5.5,7.5,9.2,15.1
				c2.5,4.9,6.2,14.3,10.2,24.7L398.5,467.7z"/>
			<g>
				<path class="st10" d="M264.2,258.3c-0.1,1-0.1,2.1,0,3.1c-7.3-1.4-21.5,2.2-21.7,6.6c-0.3,5.3-0.9,17.8,1.8,20.7
					c2.7,2.9,8.4,4.8,8.4,4.8c-0.4,0-0.9,0.1-1.3,0.2c0,0,0,0,0,0c0,0-0.1,0-0.1,0c-1.9,0.4-3.5,1.4-4.8,2.7l0,0
					c-5.6,5.8-5.9,18.5-4,24.7c7.7,25.5-4.8,45.7-9.2,43.3c-4.4-2.4-4.8-24.4-3.4-29.5c1.3-5.1,1.2-9.2,1.2-9.2
					c-2-0.7-6.1,0.3-9.9,1.5c0,0,0-0.1,0-0.1c2-4.1,7.4-9.6,8.6-15.6c1.3-6.7,3-16.1,3.4-17.1c0.4-1,2.5-1.9,4.8-0.8
					c0,0,1.3-11.9,1-18c-0.4-6.1,2.3-13.8,2.9-25.9c0.6-12.1,2.1-11.5,4.2-19.8c2.1-8.3,5.6-10.8,10.6-10c5.7,0.9,7,5.1,7.3,10.9
					c-0.6-0.6-1.3-1.2-2.1-1.7c-1.9-1.3-4.1-2.2-6.4-1.9c-2.6,0.4-5,3-6.4,5.8v0c-2.1,4.1-2.5,8.5,0.5,7c3.4-1.7,10.3-1.1,14.6-0.6
					C264.4,248,264.6,252.5,264.2,258.3z"/>
				<path class="st10" d="M272,441.4c0-1.4-0.2-2.6-0.5-3.7c0,0,0,0,0,0c-0.8-2.8-2.7-4.9-7.1-7.5c-6.1-3.6-12.7-11.7-21.9-22.7
					c-7.4-8.8-15.5-13.5-19.9-18.9c5.6,3,13.1,1.5,15.5,6.2c3.5,6.9,19.7,17.3,19.7,17.3C273.7,427.8,272,441.4,272,441.4z"/>
				<path class="st10" d="M283.1,291.8c-1.9-0.4-6.9,12.1-7.4,16.5c-1.3,11.5,4.6,46.9-3,46.1c-3.1-0.3-6.8-16.9-7-24.6
					c-0.7-23.4,0.3-33.1,0.3-33.1s-1.7-13-0.6-21.8c0.1,1.3,0.2,2.7,0.3,4.1c0.4,8.1,1.2,14,1.2,14s8.6-0.8,13.2-1.5
					C281,291.3,282,291.5,283.1,291.8z"/>
				<path class="st10" d="M310.4,296.9c-4.1,0.4-8.2,4.4-11.5,5.1c-4.1,0.9-11.6-8.3-15.7-10.1c4.3,1.4,9.8,5.7,14.4,5.4
					C302.3,296.9,306.4,296.5,310.4,296.9z"/>
				<path class="st10" d="M336.7,304.1c-1.5,1.6-4.2,6.3-4.8,8.4c-3.3,10.6-0.2,50.8-5.5,44.3c-6.9-8.6,0.3-38.2-4.7-49.6
					c-1.6-3.6-7.3-9.4-8.5-9.9c4.8,1,12.1,6.9,15.5,6.9C331.2,304.2,333.6,303.7,336.7,304.1z"/>
				<path class="st10" d="M382.6,443.7c-5.4-6.1-11-11.8-14.7-14c-9-5.3-11.5-10.8-12.3-19.9c-0.8-9.1,1.5-8.9,4.2-17.9
					c2.7-9-2.3-20.2-1.9-17.8c0.4,2.4-3.8,19.1-7,19.9c-3.1,0.8-4.2-10.4-4.6-19.6c-0.4-9.2,4.6-51.9,3.2-60.2
					c-0.2-1.3-0.6-2.5-1.1-3.5c1.9,2.1,3.5,4.6,4.6,7.2c2.5,5.9,9,14,9.2,15.5c0.2,1.5-1.2,8.1,0,15c1.1,6.9,3.3,17.1,1.9,28
					c-1.3,10.9-4,18.8-0.8,27.6c3.3,8.8,6.5,13.1,8.8,23.8C372.3,428,376.6,434.6,382.6,443.7z"/>
				<path class="st10" d="M301.6,319.6c2,2.1,3.3,30.2,4.5,37.1c1.2,6.9-2.4,23.4-4.5,18.4C299.5,370.2,293.2,310.9,301.6,319.6z"/>
			</g>
			<g>
				<path class="st8" d="M293.6,484.6c-3.4-8.8-6.5-16.4-8.7-20.7c-3.8-7.5-7-11.9-9.2-15.1c-2.2-3.1-3.6-5-3.6-7.4
					c0-1.4-0.2-2.6-0.5-3.7c0,0,0,0,0,0c-0.8-2.8-2.7-4.9-7.1-7.5c-6.1-3.6-12.7-11.7-21.9-22.7c-7.4-8.8-15.5-13.5-19.9-18.9
					c-1.1-1.4-2-2.8-2.5-4.3c-2.9-7.7,0-19.6,0-31.1c0-11.5-0.6-20.5,0.6-24.8c0.1-0.4,0.3-0.9,0.5-1.4c0,0,0-0.1,0-0.1
					c2-4.1,7.4-9.6,8.6-15.6c1.3-6.7,3-16.1,3.4-17.1c0.4-1,2.5-1.9,4.8-0.8c0,0,1.3-11.9,1-18c-0.4-6.1,2.3-13.8,2.9-25.9
					c0.6-12.1,2.1-11.5,4.2-19.8c2.1-8.3,5.6-10.8,10.6-10c5.7,0.9,7,5.1,7.3,10.9c0,0,0,0,0,0c0.1,2.4,0.1,5,0.2,7.7
					c0,0.3,0,0.6,0,0.9c0.2,8.8,0.4,13.3,0,19c-0.1,1-0.1,2.1,0,3.1c0.1,4.1,0.8,8.5,1.3,13.5v0c0.1,1.3,0.2,2.7,0.3,4.1
					c0.4,8.1,1.2,14,1.2,14s8.6-0.8,13.2-1.5c0.9-0.2,1.9,0,3,0.3c0,0,0.1,0,0.1,0c4.3,1.4,9.8,5.7,14.4,5.4
					c4.7-0.3,8.8-0.7,12.8-0.4h0c0.9,0.1,1.8,0.2,2.7,0.4c4.8,1,12.1,6.9,15.5,6.9c2.5,0,5-0.5,8-0.1c1.2,0.2,2.5,0.5,3.9,1
					c2.8,1.1,5.5,3.1,7.8,5.6c1.9,2.1,3.5,4.6,4.6,7.2c2.5,5.9,9,14,9.2,15.5c0.2,1.5-1.2,8.1,0,15c1.1,6.9,3.3,17.1,1.9,28
					c-1.3,10.9-4,18.8-0.8,27.6c3.3,8.8,6.5,13.1,8.8,23.8c0,0,4.3,6.6,10.3,15.7c0,0,0,0,0,0c4.2,6.3,9.1,13.8,14,21.1"/>
				<path class="st8" d="M238.1,293.4c0,8.4-0.8,18.9-2,23.3c-1.3,4.4-0.4,18.9-2.8,25.1"/>
				<path class="st8" d="M242.4,300.1c0,0,5.9-6.7,10.2-6.7c4.4,0,8.7,2.8,13.3,3.3c4.6,0.5,9.4-2.9,13.8-3.7"/>
				<path class="st8" d="M245.8,269.3c0,0,7.9-2.9,12,0"/>
				<path class="st8" d="M251.8,265.5c0,0,2.4-0.7,6,1.1"/>
				<path class="st8" d="M249.7,245c0,0,4-1,8.1,0"/>
				<path class="st8" d="M221.2,326.9c0,0,5.1-2.5,7.2-2.7"/>
				<path class="st8" d="M234.6,334.7c0,0-3,4.8-3.6,7.1"/>
				<path class="st8" d="M249.7,224.3c0,0-1.2,9.8,0,10.6c1.2,0.9,10.7,1.7,11.5,0c0.8-1.7,0.9-8.9,0.9-8.9S256.4,216.4,249.7,224.3
					z"/>
				<path class="st8" d="M229.8,311.3c0,0,7.8-4,8-9.6c0.2-5.7-2.1-5.6-5-5.6"/>
				<path class="st8" d="M352.2,324.1c0.3,9-2.3,35.1-2.6,38.9c-0.3,3.8,0,13.7,0,13.7"/>
				<path class="st8" d="M296.2,303.6c8.4,12.3,0,7.6,5.4,66.3"/>
				<path class="st8" d="M372.3,428c0,0-7.5-5.8-8.8-9.1"/>
				<path class="st8" d="M267.8,425.2c2.2,3.7,3.7,11.9,3.7,12.4c0,0,0,0,0,0"/>
			</g>
		</g>
	</g>
</g>
</svg>
