<?xml version="1.0" encoding="utf-8"?>
<!-- Generator: Adobe Illustrator 25.4.1, SVG Export Plug-In . SVG Version: 6.00 Build 0)  -->
<svg version="1.1" id="Layer_1" xmlns="http://www.w3.org/2000/svg" xmlns:xlink="http://www.w3.org/1999/xlink" x="0px" y="0px"
	 viewBox="0 0 32 32" style="enable-background:new 0 0 32 32;" xml:space="preserve">
<style type="text/css">
	.st0{fill-rule:evenodd;clip-rule:evenodd;fill:#4651F9;}
</style>
<g>
	<path class="st0" d="M16,32c-2.1,0-4.2-0.4-6.2-1.2c-8.1-3.5-11.9-12.9-8.4-21C3,6,6,2.9,9.8,1.3c4-1.7,8.5-1.7,12.4,0
		c8.1,3.5,11.9,12.9,8.4,21c-1.6,3.8-4.6,6.8-8.4,8.4C20.2,31.6,18.1,32,16,32z M16,1.1c-6,0-11.4,3.6-13.8,9.1
		c-2.4,5.6-1.1,12.1,3.2,16.3c2.8,2.8,6.6,4.4,10.6,4.4c6,0,11.4-3.6,13.8-9.1c2.4-5.6,1.1-12.1-3.2-16.3C23.8,2.7,20,1.1,16,1.1z"
		/>
	<path class="st0" d="M21,20.3c-0.2-0.2-0.5-0.2-0.7,0c0,0,0,0,0,0c-0.2,0.2-0.2,0.5,0,0.7l1.5,1.5c0.1,0.1,0.2,0.2,0.4,0.2
		c0.1,0,0.3-0.1,0.4-0.2l2.3-2.3c0.2-0.2,0.2-0.5,0-0.7c0,0,0,0,0,0c-0.2-0.2-0.5-0.2-0.8,0l-1.9,1.9L21,20.3z"/>
	<path class="st0" d="M25.3,21.4c-0.3,0-0.6,0.2-0.6,0.5c0,0,0,0,0,0c-0.2,1.8-1.9,3.1-3.7,2.9c-1.8-0.2-3.1-1.9-2.9-3.7
		c0.2-1.7,1.6-2.9,3.3-2.9c0.6,0,1.3,0.2,1.8,0.5c0.2,0.2,0.6,0.1,0.7-0.1c0,0,0,0,0,0c0.2-0.2,0.1-0.6-0.1-0.7c0,0,0,0,0,0
		c-0.7-0.5-1.5-0.7-2.4-0.7c-1.2,0-2.3,0.5-3.1,1.3c-0.8,0.8-1.3,2-1.3,3.1c0,1.2,0.5,2.3,1.3,3.1c1.7,1.7,4.5,1.7,6.2,0
		c0.7-0.7,1.1-1.6,1.3-2.6C25.8,21.7,25.6,21.4,25.3,21.4L25.3,21.4z"/>
	<path class="st0" d="M14.4,16.5c1.2,0,2.3-0.5,3.1-1.3c0.8-0.8,1.3-1.9,1.3-3.1v-1.6c0-1.2-0.5-2.3-1.3-3.1c-1.7-1.7-4.5-1.7-6.2,0
		c-0.8,0.8-1.3,1.9-1.3,3.1v1.6c0,1.1,0.5,2.3,1.3,3.1C12.2,16.1,13.3,16.5,14.4,16.5z M11.1,10.6c0.1-1.8,1.7-3.2,3.5-3.1
		c1.7,0.1,3,1.4,3.1,3.1v1.6c-0.1,1.8-1.7,3.2-3.5,3.1c-1.7-0.1-3-1.4-3.1-3.1C11.1,12.2,11.1,10.6,11.1,10.6z"/>
	<path class="st0" d="M15.2,17.8H9.3c-1.7,0-3.1,1.4-3.1,3.1c0,0,0,0.1,0,0.1L7,25.4c0,0.3,0.3,0.4,0.5,0.5h0.1
		c0.3-0.1,0.4-0.4,0.4-0.6c0,0,0,0,0,0l-0.8-4.4c0-1.1,0.9-2,2-2h5.9c0.3,0,0.5-0.2,0.5-0.5C15.7,18,15.5,17.8,15.2,17.8L15.2,17.8z
		"/>
</g>
</svg>
