<?xml version="1.0" encoding="utf-8"?>
<!-- Generator: Adobe Illustrator 25.4.1, SVG Export Plug-In . SVG Version: 6.00 Build 0)  -->
<svg version="1.1" id="Layer_1" xmlns="http://www.w3.org/2000/svg" xmlns:xlink="http://www.w3.org/1999/xlink" x="0px" y="0px"
	 viewBox="0 0 32 32" style="enable-background:new 0 0 32 32;" xml:space="preserve">
<style type="text/css">
	.st0{fill-rule:evenodd;clip-rule:evenodd;fill:#4651F9;}
</style>
<g>
	<path class="st0" d="M16,32c-2.1,0-4.2-0.4-6.2-1.2c-8.1-3.5-11.9-12.9-8.4-21C3,6,6,2.9,9.8,1.3c4-1.7,8.5-1.7,12.4,0
		c8.1,3.5,11.9,12.9,8.4,21c-1.6,3.8-4.6,6.8-8.4,8.4C20.2,31.6,18.1,32,16,32z M16,1.1c-6,0-11.4,3.6-13.8,9.1
		c-2.4,5.6-1.1,12.1,3.2,16.3c2.8,2.8,6.6,4.4,10.6,4.4c6,0,11.4-3.6,13.8-9.1c2.4-5.6,1.1-12.1-3.2-16.3C23.8,2.7,20,1.1,16,1.1z"
		/>
	<path class="st0" d="M24.1,8.6L23,7.5c-0.1-0.1-0.2-0.2-0.4-0.2c-0.1,0-0.3,0.1-0.4,0.2l-0.3,0.3V7.7c0-0.8-0.6-1.5-1.4-1.5
		c0,0,0,0,0,0H9.2c-0.8,0-1.4,0.7-1.4,1.5c0,0,0,0,0,0v16.7c0,0.8,0.6,1.4,1.4,1.5h11.3c0.8,0,1.4-0.7,1.4-1.5V13.7
		c0.1-0.3,0-0.6-0.3-0.7c-0.3-0.1-0.6,0-0.7,0.3c0,0.1,0,0.2,0,0.4v10.7c0,0.2-0.2,0.4-0.4,0.4H9.2c-0.2,0-0.4-0.2-0.4-0.4V7.7
		c0-0.2,0.2-0.4,0.4-0.4h11.3c0.2,0,0.4,0.2,0.4,0.4v1.2l-6.3,6.3c0,0-0.1,0.1-0.1,0.1l-1.6,2.6h-2.3c-0.3,0-0.5,0.2-0.5,0.5
		c0,0,0,0,0,0c0,0.3,0.2,0.5,0.5,0.5h0h2.6c0.1,0,0.2,0,0.3-0.1l2.8-1.7c0.2-0.2,0.3-0.5,0.2-0.7c-0.2-0.2-0.5-0.3-0.7-0.2l-0.9,0.6
		l0.6-0.9l7.2-7.2l0.7,0.7c0.2,0.2,0.5,0.2,0.7,0c0,0,0,0,0,0C24.3,9.1,24.3,8.8,24.1,8.6C24.1,8.6,24.1,8.6,24.1,8.6z"/>
</g>
</svg>
