<svg xmlns="http://www.w3.org/2000/svg" id="Layer_1" data-name="Layer 1" viewBox="0 0 1200 900">
  <defs fill="#000000">
    <style>.cls-1{fill:#fff;}.cls-1,.cls-2,.cls-4,.cls-5{stroke:#4055fe;}.cls-1,.cls-2,.cls-5,.cls-6{stroke-linecap:round;stroke-linejoin:round;}.cls-1,.cls-2,.cls-4,.cls-5,.cls-6{stroke-width:4px;}.cls-2,.cls-6{fill:none;}.cls-3{fill:#e64fff;}.cls-4,.cls-5,.cls-7{fill:#4055fe;}.cls-4{stroke-miterlimit:10;}.cls-6{stroke:#fff;}</style>
  </defs>
  <rect class="cls-1" x="135.5" y="16.13" width="491.6" height="867.73" rx="21.19" fill="#000000"/>
  <circle class="cls-2" cx="381.3" cy="828.48" r="34.93" fill="#000000"/>
  <rect class="cls-2" x="339.59" y="42.09" width="83.43" height="11.93" rx="5.46" fill="#000000"/>
  <rect class="cls-3" x="183.49" y="245.14" width="395.63" height="395.63" fill="#000000"/>
  <path class="cls-2" d="M221.38,539.84c44.63-111,92.86-71.74,92.86-154.51,0-8.28-1.53-19.74-9.93-19.74-24.35,0-33.95,79-33.95,103.15,0,27.48,12.41,68.17,38.29,68.17,26.13,0,55.87-38.63,55.87-59.94,0-9-5.91-13.49-12.21-13.49-9.8,0-15.82,13.55-15.82,27.54,0,14.93,6.86,30.37,23.32,30.37,17.25,0,46.43-18.24,53.76-46.31a47.21,47.21,0,0,0-3,15.1c0,13.47,13.34,25.65,23.14,25.65,17.93,0,30.92-32.49,41.59-32.49,10.15,0,17.28,26.31,33.8,26.31,6.45,0,14.33-4,24.39-15.17" fill="#000000"/>
  <path class="cls-1" d="M933.29,299.5c-1.28,9.57-3.15,19.06-4,28.68-3.38,38.54-7.66,20.3-6.87,46.47,1.16,38.67,9.75,73,9.75,120.69,0,1.75-.93,3.11-2.43,4.63-19.23-2-36-4.55-36.16-4.61-.12-2.19-.16-4.36-.23-6.54h0c0-1.16,0-2.32,0-3.49,0-5.9-.38-11.81-.38-17.72,0-23.87,8.88-95.32,9.88-109.94q-1.65-19.6-1.73-39.31" fill="#000000"/>
  <path class="cls-1" d="M1059,190.44,906,270.6a5.87,5.87,0,0,1-7.92-2.47h0a5.87,5.87,0,0,1,2.47-7.91l147.75-77.44a20.08,20.08,0,0,1,26.11,6.78l2.48,3.77Z" fill="#000000"/>
  <path class="cls-1" d="M1091.06,225.67,619.87,472.6l-17.94-2.9a15.19,15.19,0,0,1-11.29-21.54l7.83-16.39,471.19-246.94-7.83,16.4a15.19,15.19,0,0,0,11.29,21.54Z" fill="#000000"/>
  <path class="cls-4" d="M550.07,475.67l6.14,11.73-12.38,2.89a3.55,3.55,0,0,1-3.19-6.08Z" fill="#000000"/>
  <path class="cls-1" d="M601.94,469.7l17.92,2.88L556.21,487.4l-6.14-11.73,48.4-43.89-7.82,16.37A15.2,15.2,0,0,0,601.94,469.7Z" fill="#000000"/>
  <path class="cls-1" d="M1087.6,187.73l-17.94-2.9-7.83,16.4a15.19,15.19,0,0,0,11.29,21.54l17.94,2.9,7.82-16.4A15.19,15.19,0,0,0,1087.6,187.73Z" fill="#000000"/>
  <path class="cls-1" d="M911.32,351.13c-.93-2.8-1.68-4.36-1.68-7.38a26.57,26.57,0,0,1,1.83-8.9l-.07.32,0-.16-.05.08c-1.08-16.88-1.52-16.41-1.52-20.27,0-2.5.22-6.14,2.85-6.14,4.72,0,5.54,10.32,8.35,24.83" fill="#000000"/>
  <path class="cls-2" d="M921.28,314.64c-.88,8-.23,1.68-1.55,9.6" fill="#000000"/>
  <path class="cls-1" d="M755.57,403.82c-.19,3.83-.61,5-.88,9.5-.23,3.88,21.82,84.11,25.36,96.36,1.63,5.63,20.84,13.68,35.47,21.89-8.37,9.77-16.08,23.95-23.81,34.23-6.47-4.89-43.67-27-45.54-44.87-1.38-13.22-4.94-44-6.56-57.74-3.85-32.66-14.36-26.52-38.18-40.5a5.48,5.48,0,0,1-3-4.6c0-1.76,1.34-3.13,3.6-3.13a8,8,0,0,1,3,.68c-.87-2.89-.58-3.7,1.25-5.42,1.51-1.43,5.87-.15,7.82,1.32,0-.07,0-.15,0-.21-1.59-4.76,1.23-5.63,4.47-4.53,7.93,2.68,15.79,9.67,21.26,9.67,2.2,0,4.85-2.2,5.8-7" fill="#000000"/>
  <path class="cls-2" d="M722.76,424.44c-7.24-2.91-11.38-5.38-17.67-8.8" fill="#000000"/>
  <path class="cls-2" d="M731.36,420.84c-6.76-2.83-13.81-5.2-17.2-9.3" fill="#000000"/>
  <path class="cls-5" d="M798.85,883.87c-.91-1.47-.91-3.19-.91-5.14,0-18.64,25.1-5.46,34.33-28.58.79-2,.79-4.62,2.35-6.12,5.5-.45,9.92-1,14.52-1a50.61,50.61,0,0,1,10,1c.45.49,7,35.29,7,35.68,0,2.93,1.31,4.18-5,4.18" fill="#000000"/>
  <path class="cls-1" d="M942.94,883.87c21.6-3.78,42.62-26.4,42.62-61.18,0-10-1.73-29.14-11.68-29.14-3.54,0-6.37,2.71-6.37,7.62,0,8,7.28,16.23,7.28,27.75,0,16.64-9.59,40.61-27.84,44.79,0-.55,0-1.1,0-1.67,0-14.68-1.65-34.38-18.63-38.5a14.86,14.86,0,0,0,11.93-14.92,19.48,19.48,0,0,0-2.08-8.59,47.69,47.69,0,0,0,3-9.51l-.88,0a22.46,22.46,0,0,0-12.84,4.6,26.53,26.53,0,0,0-6.24-1.21,7.75,7.75,0,0,0-4,1,35,35,0,0,1-7-6.28l-.85.15a12.05,12.05,0,0,0-2.68,7.23,14,14,0,0,0,.45,3.37c-3.23,3.88-5.78,6.77-5.78,11.85a16.64,16.64,0,0,0,9.89,14.81c-9.82,5.62-12.41,13.36-12.41,22.14,0,5.46-5.8,22-5.5,23.17" fill="#000000"/>
  <path class="cls-5" d="M830,883.87c-.17-2.06,0-3.19,0-5.14,0-18.64,25.09-5.46,34.32-28.58.79-2,.79-4.62,2.35-6.12,5.5-.45,9.92-1,14.52-1a50.61,50.61,0,0,1,10,1c.46.49,7,35.29,7,35.68,0,2.93,1.48,3.62-5,4.18" fill="#000000"/>
  <path class="cls-1" d="M919.12,648.53a91.18,91.18,0,0,1,3.59,34.7c-1.75,21.18-8.09,41.76-16.6,61.16q-2.88,6.57-6.21,12.92c-2,3.88-5,7.76-5.71,12.17a19.55,19.55,0,0,0-.09,4.19c.93,18.9,1.08,37.82,1.82,56.73.21,5.47,1,11,.55,16.46-.48,6.57-5.28,9-11.33,9.94a71.22,71.22,0,0,1-11,.68c-4.36,0-8.58-.72-11.38-2.87,0-.12-10.55-103.59-10.55-103.71,0-7.82,9.58-84,11.9-96.24" fill="#000000"/>
  <path class="cls-1" d="M898,678.56c0,.44,0,.89,0,1.34,0,11.38-5.09,26.68-9.26,37.08-4.64,11.57-9.56,23-15.25,34.15-3.21,6.28-9.18,13.48-10.5,20.45a18.21,18.21,0,0,0-.21,3.69c.12,6.87.58,13.73.91,20.59.54,11.23,1,22.47,2,33.67.28,3.18.53,6.31.53,9.51,0,4.15.05,8.72-1.92,12.5s-5.9,5.44-10,6.27c-8,1.61-24.38,2.89-26.09-8.27,0-.2-9.76-93.83-9.76-93.94,0-7.81,2.26-15.73,3.39-23.34,4.07-27.37,11-54.24,16.39-81.34l63.52-4" fill="#000000"/>
  <path class="cls-5" d="M926.56,570c0,1.08.25,9.52.25,14.28,0,13.82-4.08,74.27-4.1,74.36-9.17,4.15-21.5,2.69-31.22,2.6q-17.22-.18-34.44-.81c-4.64-.17-9.27-.28-13.91-.42-1.6,0-5.53.61-7-.2-10.67-6.42-5.34-17.29-9.92-60.19a41.71,41.71,0,0,0-4.3-12.28c-.86-1.46-29.32-17.84-44.31-29.79.12-.4,22.14-34.49,26.43-34.49,4.87,0,37.54,20.7,39.68,20.7,10.71-.12,20.54-6.41,37-14.6.42-.21,1,0,1.42,0,5.07-9.46,1.64-11.76,7.62-42.56A21.18,21.18,0,0,1,901,483.86c6.84,0,14.21,2,20.53,3,7.84,1.19,12.4,0,12.4,7.92C934,497.36,926.56,569.87,926.56,570Z" fill="#000000"/>
  <path class="cls-6" d="M904.78,531.4a23.35,23.35,0,0,1,9.41,8.55" fill="#000000"/>
  <path class="cls-1" d="M838.25,512.69c.52,13.26,7.12,18.22,12.19,18.22l1.42,0c5.14,0,7.91,5.57,9.4,10.3,2.75,1.64,5.94,2,9.1,2,11.85,0,23.55-2.26,23.55-13.39,0-2.09-.25-4.24-.25-6.27,0-22.73,4.37-20.8,4.37-36.27,0-26.84-15.12-39.2-34.27-39.2-22.1,0-29.48,8.66-29.9,25.77v.09c0,1.8.94,2.65.94,5.18,0,6-4.66,12.73-4.66,19.37,0,4.06,1.61,7,5.73,7a10,10,0,0,0,1.3-.09,28.81,28.81,0,0,1,1.08,7.33,13.56,13.56,0,0,0,2.06.16,14.36,14.36,0,0,0,7.4-2.29" fill="#000000"/>
  <path class="cls-7" d="M899.68,504.54c-.28.85-.56,1.64-.86,2.39-1.65,4.23-4.1,6.64-8.81,6.64-9.2,0-16.19-3.35-19.45-12.18-1.33-3.63-2.07-7.44-3.33-11.08-1.86-5.38-3.43-7.66-8.71-9.75s-6.89-9.77-12.38-11.15c-2.32,3.59-4.84,6.35-9.49,6.35-7.45,0-12.07-7.93-12.68-14.62-1.18-13,8.08-23.09,21-23.09,7.24,0,12.37,4.38,26,4.38,6.07,0,12-1.37,17.88,1,4.86,2,8.58,6.21,10.86,10.95C906.78,469.14,904.68,489.49,899.68,504.54Z" fill="#000000"/>
  <path class="cls-1" d="M855.84,483.75c2-2.48,4.55-4.87,7.73-4.87,6.45,0,9.17,9.09,9.17,15.66,0,5.78-2.14,12-7.66,12a8,8,0,0,1-5.63-2.67" fill="#000000"/>
  <path class="cls-2" d="M841.43,480.86c.28,3.43.58,6.84.88,10.27" fill="#000000"/>
  <line class="cls-2" x1="734.31" y1="883.87" x2="980.93" y2="883.87" fill="#000000"/>
  <path class="cls-2" d="M912.92,812.76c.5-.62.89-1.32,1.42-1.91" fill="#000000"/>
  <path class="cls-2" d="M922,813.78c.48-.64,1-1.28,1.44-1.92" fill="#000000"/>
  <path class="cls-2" d="M914,818.57a5.2,5.2,0,0,0,3.6,1.4h.12" fill="#000000"/>
  <path class="cls-2" d="M415.07,434.4c1.41,8.93,3,16.84,7.2,24.9" fill="#000000"/>
</svg>